<?xml version="1.0" encoding="UTF-8"?>
<svg xmlns="http://www.w3.org/2000/svg" width="800.000" height="600.000" viewBox="0.0 0.0 800.000 600.000" version="1.1">
<path d="M402.24 197.39L402.6 197.39"
fill="none" stroke="RGB(159,127,255)" stroke-width="0.5"/>
<path d="M375.53 384.24L375.73 384.62"
fill="none" stroke="RGB(159,127,255)" stroke-width="0.5"/>
<path d="M384.47 374.76L382.61 372.16"
fill="none" stroke="RGB(159,127,255)" stroke-width="0.5"/>
<path d="M382.61 372.16L382.26 372.41"
fill="none" stroke="RGB(159,127,255)" stroke-width="0.5"/>
<path d="M378.88 384.82L379.09 385.2"
fill="none" stroke="RGB(159,127,255)" stroke-width="0.5"/>
<path d="M378.1 383.37L378.89 384.82"
fill="none" stroke="RGB(159,127,255)" stroke-width="0.5"/>
<path d="M384.47 382.13L384.47 374.76Z"
fill="none" stroke="RGB(159,127,255)" stroke-width="0.5"/>
<path d="M515.96 319.83L515.96 319.54Z"
fill="none" stroke="RGB(159,127,255)" stroke-width="0.5"/>
<path d="M528.76 319.54L528.76 325.95Z"
fill="none" stroke="RGB(159,127,255)" stroke-width="0.5"/>
<path d="M515.96 319.54L528.76 319.54"
fill="none" stroke="RGB(159,127,255)" stroke-width="0.5"/>
<path d="M725.94 231.95L691.03 196.86"
fill="none" stroke="RGB(159,127,255)" stroke-width="0.5"/>
<path d="M728.85 234.76L728.49 235.12"
fill="none" stroke="RGB(159,127,255)" stroke-width="0.5"/>
<path d="M731.63 237.46L728.85 234.76"
fill="none" stroke="RGB(159,127,255)" stroke-width="0.5"/>
<path d="M654.65 314.06L663.15 305.67"
fill="none" stroke="RGB(159,127,255)" stroke-width="0.5"/>
<path d="M686.17 282.05L686.64 282.45"
fill="none" stroke="RGB(159,127,255)" stroke-width="0.5"/>
<path d="M663.15 305.67L686.64 282.45"
fill="none" stroke="RGB(159,127,255)" stroke-width="0.5"/>
<path d="M642.12 196.86L640.34 196.86"
fill="none" stroke="RGB(159,127,255)" stroke-width="0.5"/>
<path d="M640.34 196.86L640.34 197.43Z"
fill="none" stroke="RGB(159,127,255)" stroke-width="0.5"/>
<path d="M642.12 197.43L642.12 196.86Z"
fill="none" stroke="RGB(159,127,255)" stroke-width="0.5"/>
<path d="M516.81 197.86L516.81 196.79Z"
fill="none" stroke="RGB(159,127,255)" stroke-width="0.5"/>
<path d="M520.08 197.86L519.91 197.86"
fill="none" stroke="RGB(159,127,255)" stroke-width="0.5"/>
<path d="M516.93 197.86L516.81 197.86"
fill="none" stroke="RGB(159,127,255)" stroke-width="0.5"/>
<path d="M516.93 197.86L516.93 198.57Z"
fill="none" stroke="RGB(159,127,255)" stroke-width="0.5"/>
<path d="M519.91 197.86L519.91 198.57Z"
fill="none" stroke="RGB(159,127,255)" stroke-width="0.5"/>
<path d="M140.66 222.48L140.66 270.86Z"
fill="none" stroke="RGB(159,127,255)" stroke-width="0.5"/>
<path d="M140.66 287.1L140.66 391.06Z"
fill="none" stroke="RGB(159,127,255)" stroke-width="0.5"/>
<path d="M406.23 365.86L405.15 364.71"
fill="none" stroke="RGB(159,127,255)" stroke-width="0.5"/>
<path d="M402.6 198.43L402.6 197.36Z"
fill="none" stroke="RGB(159,127,255)" stroke-width="0.5"/>
<path d="M402.6 197.36L402.24 197.36"
fill="none" stroke="RGB(159,127,255)" stroke-width="0.5"/>
<path d="M504.07 198.07L504.07 196.79Z"
fill="none" stroke="RGB(159,127,255)" stroke-width="0.5"/>
<path d="M362.96 387.4L371.48 387.4"
fill="none" stroke="RGB(159,127,255)" stroke-width="0.5"/>
<path d="M502.22 196.79L502.22 198.07Z"
fill="none" stroke="RGB(159,127,255)" stroke-width="0.5"/>
<path d="M507.06 196.79L507.06 198.07Z"
fill="none" stroke="RGB(159,127,255)" stroke-width="0.5"/>
<path d="M542 318.4L529.76 318.4"
fill="none" stroke="RGB(159,127,255)" stroke-width="0.5"/>
<path d="M504.07 196.79L502.22 196.79"
fill="none" stroke="RGB(159,127,255)" stroke-width="0.5"/>
<path d="M347.38 196.86L301.77 196.86"
fill="none" stroke="RGB(159,127,255)" stroke-width="0.5"/>
<path d="M301.77 196.86L301.77 197.86Z"
fill="none" stroke="RGB(159,127,255)" stroke-width="0.5"/>
<path d="M156.17 391.06L158.24 391.06"
fill="none" stroke="RGB(159,127,255)" stroke-width="0.5"/>
<path d="M158.24 391.06L158.24 390.49Z"
fill="none" stroke="RGB(159,127,255)" stroke-width="0.5"/>
<path d="M156.17 390.49L156.17 391.06Z"
fill="none" stroke="RGB(159,127,255)" stroke-width="0.5"/>
<path d="M160.51 391.06L161.3 391.06"
fill="none" stroke="RGB(159,127,255)" stroke-width="0.5"/>
<path d="M161.3 391.06L161.3 390.49Z"
fill="none" stroke="RGB(159,127,255)" stroke-width="0.5"/>
<path d="M160.51 390.49L160.51 391.06Z"
fill="none" stroke="RGB(159,127,255)" stroke-width="0.5"/>
<path d="M163.57 391.06L219.02 391.06"
fill="none" stroke="RGB(159,127,255)" stroke-width="0.5"/>
<path d="M221.28 391.06L222.28 391.06"
fill="none" stroke="RGB(159,127,255)" stroke-width="0.5"/>
<path d="M224.56 391.06L262.34 391.06"
fill="none" stroke="RGB(159,127,255)" stroke-width="0.5"/>
<path d="M296.43 197.86L296.22 197.86"
fill="none" stroke="RGB(159,127,255)" stroke-width="0.5"/>
<path d="M296.43 198.57L296.43 197.86Z"
fill="none" stroke="RGB(159,127,255)" stroke-width="0.5"/>
<path d="M623.13 326.94L643.24 326.94"
fill="none" stroke="RGB(159,127,255)" stroke-width="0.5"/>
<path d="M646.46 314.06L654.65 314.06"
fill="none" stroke="RGB(159,127,255)" stroke-width="0.5"/>
<path d="M645.89 314.38L646.46 314.38"
fill="none" stroke="RGB(159,127,255)" stroke-width="0.5"/>
<path d="M645.82 196.86L644.4 196.86"
fill="none" stroke="RGB(159,127,255)" stroke-width="0.5"/>
<path d="M644.4 196.86L644.4 197.43Z"
fill="none" stroke="RGB(159,127,255)" stroke-width="0.5"/>
<path d="M645.82 197.43L645.82 196.86Z"
fill="none" stroke="RGB(159,127,255)" stroke-width="0.5"/>
<path d="M607.54 356.33L607.54 363.82Z"
fill="none" stroke="RGB(159,127,255)" stroke-width="0.5"/>
<path d="M615.94 356.33L607.54 356.33"
fill="none" stroke="RGB(159,127,255)" stroke-width="0.5"/>
<path d="M607.54 363.82L615.94 363.82"
fill="none" stroke="RGB(159,127,255)" stroke-width="0.5"/>
<path d="M503.15 326.94L529.76 326.94"
fill="none" stroke="RGB(159,127,255)" stroke-width="0.5"/>
<path d="M425.87 339.53L425.87 337.97Z"
fill="none" stroke="RGB(159,127,255)" stroke-width="0.5"/>
<path d="M425.87 335.41L425.87 326.94Z"
fill="none" stroke="RGB(159,127,255)" stroke-width="0.5"/>
<path d="M425.87 335.41L425.3 335.41"
fill="none" stroke="RGB(159,127,255)" stroke-width="0.5"/>
<path d="M425.87 337.97L425.3 337.97"
fill="none" stroke="RGB(159,127,255)" stroke-width="0.5"/>
<path d="M405.69 198.43L405.43 198.43"
fill="none" stroke="RGB(159,127,255)" stroke-width="0.5"/>
<path d="M402.87 198.43L402.6 198.43"
fill="none" stroke="RGB(159,127,255)" stroke-width="0.5"/>
<path d="M402.87 198.43L402.87 199.14Z"
fill="none" stroke="RGB(159,127,255)" stroke-width="0.5"/>
<path d="M405.43 198.43L405.43 199.14Z"
fill="none" stroke="RGB(159,127,255)" stroke-width="0.5"/>
<path d="M516.81 196.79L507.06 196.79"
fill="none" stroke="RGB(159,127,255)" stroke-width="0.5"/>
<path d="M499.23 198.07L499.23 197.36Z"
fill="none" stroke="RGB(159,127,255)" stroke-width="0.5"/>
<path d="M499.23 197.36L498.52 197.36"
fill="none" stroke="RGB(159,127,255)" stroke-width="0.5"/>
<path d="M428.78 196.79L405.69 196.79"
fill="none" stroke="RGB(159,127,255)" stroke-width="0.5"/>
<path d="M646.46 326.94L646.46 316.66Z"
fill="none" stroke="RGB(159,127,255)" stroke-width="0.5"/>
<path d="M646.46 316.66L645.89 316.66"
fill="none" stroke="RGB(159,127,255)" stroke-width="0.5"/>
<path d="M638.07 196.86L520.08 196.86"
fill="none" stroke="RGB(159,127,255)" stroke-width="0.5"/>
<path d="M638.07 197.43L638.07 196.86Z"
fill="none" stroke="RGB(159,127,255)" stroke-width="0.5"/>
<path d="M299.28 197.86L298.71 197.86"
fill="none" stroke="RGB(159,127,255)" stroke-width="0.5"/>
<path d="M298.71 197.86L298.71 198.57Z"
fill="none" stroke="RGB(159,127,255)" stroke-width="0.5"/>
<path d="M299.28 198.57L299.28 197.86Z"
fill="none" stroke="RGB(159,127,255)" stroke-width="0.5"/>
<path d="M405.69 196.79L405.69 198.43Z"
fill="none" stroke="RGB(159,127,255)" stroke-width="0.5"/>
<path d="M444.58 200.36L444.43 200.27"
fill="none" stroke="RGB(159,127,255)" stroke-width="0.5"/>
<path d="M439.25 197.28L438.41 196.79"
fill="none" stroke="RGB(159,127,255)" stroke-width="0.5"/>
<path d="M438.97 197.77L439.25 197.28"
fill="none" stroke="RGB(159,127,255)" stroke-width="0.5"/>
<path d="M444.15 200.77L444.43 200.27"
fill="none" stroke="RGB(159,127,255)" stroke-width="0.5"/>
<path d="M436.85 196.79L434.83 200.29"
fill="none" stroke="RGB(159,127,255)" stroke-width="0.5"/>
<path d="M429.65 197.29L428.78 196.79"
fill="none" stroke="RGB(159,127,255)" stroke-width="0.5"/>
<path d="M429.37 197.79L429.65 197.29"
fill="none" stroke="RGB(159,127,255)" stroke-width="0.5"/>
<path d="M434.55 200.78L434.83 200.29"
fill="none" stroke="RGB(159,127,255)" stroke-width="0.5"/>
<path d="M438.41 196.79L436.85 196.79"
fill="none" stroke="RGB(159,127,255)" stroke-width="0.5"/>
<path d="M301.77 197.86L301.55 197.86"
fill="none" stroke="RGB(159,127,255)" stroke-width="0.5"/>
<path d="M301.55 197.86L301.55 198.57Z"
fill="none" stroke="RGB(159,127,255)" stroke-width="0.5"/>
<path d="M347.38 197.86L347.38 196.86Z"
fill="none" stroke="RGB(159,127,255)" stroke-width="0.5"/>
<path d="M251.04 183.84L261.7 183.84"
fill="none" stroke="RGB(159,127,255)" stroke-width="0.5"/>
<path d="M247.19 175.87L247.19 183.84Z"
fill="none" stroke="RGB(159,127,255)" stroke-width="0.5"/>
<path d="M247.92 182.55L247.92 183.84Z"
fill="none" stroke="RGB(159,127,255)" stroke-width="0.5"/>
<path d="M251.04 183.84L251.04 182.55Z"
fill="none" stroke="RGB(159,127,255)" stroke-width="0.5"/>
<path d="M247.92 183.84L247.19 183.84"
fill="none" stroke="RGB(159,127,255)" stroke-width="0.5"/>
<path d="M261.7 183.84L261.7 175.87Z"
fill="none" stroke="RGB(159,127,255)" stroke-width="0.5"/>
<path d="M261.7 175.87L247.19 175.87"
fill="none" stroke="RGB(159,127,255)" stroke-width="0.5"/>
<path d="M398.27 366.32L401.43 370.14"
fill="none" stroke="RGB(159,127,255)" stroke-width="0.5"/>
<path d="M224.63 207.54L225.7 207.54"
fill="none" stroke="RGB(159,127,255)" stroke-width="0.5"/>
<path d="M231.64 197.86L231.39 197.86"
fill="none" stroke="RGB(159,127,255)" stroke-width="0.5"/>
<path d="M230.96 198.57L231.64 198.57"
fill="none" stroke="RGB(159,127,255)" stroke-width="0.5"/>
<path d="M231.64 198.57L231.64 197.86Z"
fill="none" stroke="RGB(159,127,255)" stroke-width="0.5"/>
<path d="M234.48 197.86L233.92 197.86"
fill="none" stroke="RGB(159,127,255)" stroke-width="0.5"/>
<path d="M233.92 197.86L233.92 198.57Z"
fill="none" stroke="RGB(159,127,255)" stroke-width="0.5"/>
<path d="M234.48 198.57L234.48 197.86Z"
fill="none" stroke="RGB(159,127,255)" stroke-width="0.5"/>
<path d="M231.39 196.86L224.63 196.86"
fill="none" stroke="RGB(159,127,255)" stroke-width="0.5"/>
<path d="M225.77 209.81L224.63 209.81"
fill="none" stroke="RGB(159,127,255)" stroke-width="0.5"/>
<path d="M224.63 209.81L224.63 222.48Z"
fill="none" stroke="RGB(159,127,255)" stroke-width="0.5"/>
<path d="M224.63 222.48L140.66 222.48"
fill="none" stroke="RGB(159,127,255)" stroke-width="0.5"/>
<path d="M140.66 391.06L153.9 391.06"
fill="none" stroke="RGB(159,127,255)" stroke-width="0.5"/>
<path d="M153.9 391.06L153.9 390.49Z"
fill="none" stroke="RGB(159,127,255)" stroke-width="0.5"/>
<path d="M224.63 196.86L224.63 207.54Z"
fill="none" stroke="RGB(159,127,255)" stroke-width="0.5"/>
<path d="M231.39 197.86L231.39 196.86Z"
fill="none" stroke="RGB(159,127,255)" stroke-width="0.5"/>
<path d="M237.37 197.86L236.76 197.86"
fill="none" stroke="RGB(159,127,255)" stroke-width="0.5"/>
<path d="M236.76 197.86L236.76 198.57Z"
fill="none" stroke="RGB(159,127,255)" stroke-width="0.5"/>
<path d="M236.76 198.57L237.37 198.57"
fill="none" stroke="RGB(159,127,255)" stroke-width="0.5"/>
<path d="M236.94 196.86L236.94 197.86Z"
fill="none" stroke="RGB(159,127,255)" stroke-width="0.5"/>
<path d="M264.21 196.86L236.94 196.86"
fill="none" stroke="RGB(159,127,255)" stroke-width="0.5"/>
<path d="M264.21 197.43L264.21 196.86Z"
fill="none" stroke="RGB(159,127,255)" stroke-width="0.5"/>
<path d="M347.72 197.86L347.38 197.86"
fill="none" stroke="RGB(159,127,255)" stroke-width="0.5"/>
<path d="M347.72 198.57L347.72 197.86Z"
fill="none" stroke="RGB(159,127,255)" stroke-width="0.5"/>
<path d="M267.58 196.86L265.66 196.86"
fill="none" stroke="RGB(159,127,255)" stroke-width="0.5"/>
<path d="M265.66 196.86L265.66 197.43Z"
fill="none" stroke="RGB(159,127,255)" stroke-width="0.5"/>
<path d="M267.58 197.43L267.58 196.86Z"
fill="none" stroke="RGB(159,127,255)" stroke-width="0.5"/>
<path d="M353.71 196.86L353.71 197.86Z"
fill="none" stroke="RGB(159,127,255)" stroke-width="0.5"/>
<path d="M296.22 196.86L269.03 196.86"
fill="none" stroke="RGB(159,127,255)" stroke-width="0.5"/>
<path d="M269.03 196.86L269.03 197.43Z"
fill="none" stroke="RGB(159,127,255)" stroke-width="0.5"/>
<path d="M296.22 197.86L296.22 196.86Z"
fill="none" stroke="RGB(159,127,255)" stroke-width="0.5"/>
<path d="M351.08 197.86L350 197.86"
fill="none" stroke="RGB(159,127,255)" stroke-width="0.5"/>
<path d="M350 197.86L350 198.57Z"
fill="none" stroke="RGB(159,127,255)" stroke-width="0.5"/>
<path d="M351.08 198.57L351.08 197.86Z"
fill="none" stroke="RGB(159,127,255)" stroke-width="0.5"/>
<path d="M353.71 197.86L353.36 197.86"
fill="none" stroke="RGB(159,127,255)" stroke-width="0.5"/>
<path d="M353.36 197.86L353.36 198.57Z"
fill="none" stroke="RGB(159,127,255)" stroke-width="0.5"/>
<path d="M402.24 196.86L385.95 196.86"
fill="none" stroke="RGB(159,127,255)" stroke-width="0.5"/>
<path d="M402.24 197.43L402.24 196.86Z"
fill="none" stroke="RGB(159,127,255)" stroke-width="0.5"/>
<path d="M382.89 196.86L353.71 196.86"
fill="none" stroke="RGB(159,127,255)" stroke-width="0.5"/>
<path d="M425.87 326.94L451.49 326.94"
fill="none" stroke="RGB(159,127,255)" stroke-width="0.5"/>
<path d="M451.49 326.94L451.49 318.4Z"
fill="none" stroke="RGB(159,127,255)" stroke-width="0.5"/>
<path d="M663.33 198.07L663.62 197.57"
fill="none" stroke="RGB(159,127,255)" stroke-width="0.5"/>
<path d="M663.62 197.57L662.39 196.86"
fill="none" stroke="RGB(159,127,255)" stroke-width="0.5"/>
<path d="M662.39 196.86L648.1 196.86"
fill="none" stroke="RGB(159,127,255)" stroke-width="0.5"/>
<path d="M648.1 196.86L648.1 197.43Z"
fill="none" stroke="RGB(159,127,255)" stroke-width="0.5"/>
<path d="M678.51 199.99L677.28 199.28"
fill="none" stroke="RGB(159,127,255)" stroke-width="0.5"/>
<path d="M677.28 199.28L676.99 199.78"
fill="none" stroke="RGB(159,127,255)" stroke-width="0.5"/>
<path d="M674.04 198.07L674.32 197.57"
fill="none" stroke="RGB(159,127,255)" stroke-width="0.5"/>
<path d="M674.32 197.57L673.09 196.86"
fill="none" stroke="RGB(159,127,255)" stroke-width="0.5"/>
<path d="M691.03 196.86L680.32 196.86"
fill="none" stroke="RGB(159,127,255)" stroke-width="0.5"/>
<path d="M680.32 196.86L678.51 199.99"
fill="none" stroke="RGB(159,127,255)" stroke-width="0.5"/>
<path d="M673.09 196.86L669.58 196.86"
fill="none" stroke="RGB(159,127,255)" stroke-width="0.5"/>
<path d="M669.58 196.86L667.78 199.98"
fill="none" stroke="RGB(159,127,255)" stroke-width="0.5"/>
<path d="M667.78 199.98L666.58 199.28"
fill="none" stroke="RGB(159,127,255)" stroke-width="0.5"/>
<path d="M666.58 199.28L666.29 199.78"
fill="none" stroke="RGB(159,127,255)" stroke-width="0.5"/>
<path d="M520.08 196.86L520.08 197.86Z"
fill="none" stroke="RGB(159,127,255)" stroke-width="0.5"/>
<path d="M498.52 196.86L446.59 196.86"
fill="none" stroke="RGB(159,127,255)" stroke-width="0.5"/>
<path d="M498.52 197.36L498.52 196.86Z"
fill="none" stroke="RGB(159,127,255)" stroke-width="0.5"/>
<path d="M446.59 196.86L444.58 200.36"
fill="none" stroke="RGB(159,127,255)" stroke-width="0.5"/>
<path d="M687.75 281.34L731.63 237.46"
fill="none" stroke="RGB(159,127,255)" stroke-width="0.5"/>
<path d="M515.46 356.33L507.06 356.33"
fill="none" stroke="RGB(159,127,255)" stroke-width="0.5"/>
<path d="M507.06 363.82L515.46 363.82"
fill="none" stroke="RGB(159,127,255)" stroke-width="0.5"/>
<path d="M277.14 388.57L277.14 390.99Z"
fill="none" stroke="RGB(159,127,255)" stroke-width="0.5"/>
<path d="M263.3 388.57L264.34 388.57"
fill="none" stroke="RGB(159,127,255)" stroke-width="0.5"/>
<path d="M266.85 388.57L272.99 388.57"
fill="none" stroke="RGB(159,127,255)" stroke-width="0.5"/>
<path d="M271.2 388.57L272.99 388.57"
fill="none" stroke="RGB(159,127,255)" stroke-width="0.5"/>
<path d="M275.55 388.57L276.35 388.57"
fill="none" stroke="RGB(159,127,255)" stroke-width="0.5"/>
<path d="M529.76 326.94L529.76 318.4Z"
fill="none" stroke="RGB(159,127,255)" stroke-width="0.5"/>
<path d="M140.66 182.63L247.19 182.63"
fill="none" stroke="RGB(159,127,255)" stroke-width="0.5"/>
<path d="M355.78 390.92L355.78 393.17Z"
fill="none" stroke="RGB(159,127,255)" stroke-width="0.5"/>
<path d="M725.36 245.02L689.05 281.33"
fill="none" stroke="RGB(159,127,255)" stroke-width="0.5"/>
<path d="M689.05 281.33L695.32 285.35"
fill="none" stroke="RGB(159,127,255)" stroke-width="0.5"/>
<path d="M695.32 285.35L730.51 250.17"
fill="none" stroke="RGB(159,127,255)" stroke-width="0.5"/>
<path d="M450.28 383.66L450.85 383.66"
fill="none" stroke="RGB(159,127,255)" stroke-width="0.5"/>
<path d="M453.83 383.66L462.8 383.66"
fill="none" stroke="RGB(159,127,255)" stroke-width="0.5"/>
<path d="M462.8 383.66L462.8 389.49Z"
fill="none" stroke="RGB(159,127,255)" stroke-width="0.5"/>
<path d="M462.8 389.49L450.28 389.49"
fill="none" stroke="RGB(159,127,255)" stroke-width="0.5"/>
<path d="M450.28 389.49L450.28 383.66Z"
fill="none" stroke="RGB(159,127,255)" stroke-width="0.5"/>
<path d="M538.02 376.83L629.37 376.83"
fill="none" stroke="RGB(159,127,255)" stroke-width="0.5"/>
<path d="M538.02 376.83L538.02 390.2Z"
fill="none" stroke="RGB(159,127,255)" stroke-width="0.5"/>
<path d="M538.02 390.2L608.09 390.2"
fill="none" stroke="RGB(159,127,255)" stroke-width="0.5"/>
<path d="M384.47 377.52L400.13 368.57"
fill="none" stroke="RGB(159,127,255)" stroke-width="0.5"/>
<path d="M619.14 357.63L619.35 357.63"
fill="none" stroke="RGB(159,127,255)" stroke-width="0.5"/>
<path d="M619.35 357.63L619.35 356.33Z"
fill="none" stroke="RGB(159,127,255)" stroke-width="0.5"/>
<path d="M619.35 363.82L619.35 359.9Z"
fill="none" stroke="RGB(159,127,255)" stroke-width="0.5"/>
<path d="M512.8 329.43L506.24 329.43"
fill="none" stroke="RGB(159,127,255)" stroke-width="0.5"/>
<path d="M615.94 356.33L619.35 356.33"
fill="none" stroke="RGB(159,127,255)" stroke-width="0.5"/>
<path d="M619.35 363.82L615.94 363.82"
fill="none" stroke="RGB(159,127,255)" stroke-width="0.5"/>
<path d="M503.65 363.82L507.06 363.82"
fill="none" stroke="RGB(159,127,255)" stroke-width="0.5"/>
<path d="M503.65 363.82L503.65 356.33Z"
fill="none" stroke="RGB(159,127,255)" stroke-width="0.5"/>
<path d="M507.06 356.33L506.85 356.33"
fill="none" stroke="RGB(159,127,255)" stroke-width="0.5"/>
<path d="M504.57 356.33L503.65 356.33"
fill="none" stroke="RGB(159,127,255)" stroke-width="0.5"/>
<path d="M277.14 390.99L359.41 390.99"
fill="none" stroke="RGB(159,127,255)" stroke-width="0.5"/>
<path d="M528.34 326.37L522.2 326.39"
fill="none" stroke="RGB(159,127,255)" stroke-width="0.5"/>
<path d="M520.14 326.4L515.53 326.41"
fill="none" stroke="RGB(159,127,255)" stroke-width="0.5"/>
<path d="M515.53 326.41L512.79 326.42"
fill="none" stroke="RGB(159,127,255)" stroke-width="0.5"/>
<path d="M451.59 326.94L503.15 326.94"
fill="none" stroke="RGB(159,127,255)" stroke-width="0.5"/>
<path d="M528.76 325.95L528.34 325.95"
fill="none" stroke="RGB(159,127,255)" stroke-width="0.5"/>
<path d="M528.34 325.95L528.34 326.37Z"
fill="none" stroke="RGB(159,127,255)" stroke-width="0.5"/>
<path d="M 375.73 384.62 A 126.203 126.203 0 0 0 378.1 383.37"
fill="none" stroke="RGB(159,127,255)" stroke-width="0.5"/>
<path d="M 379.09 385.2 A 128.275 128.275 0 0 0 384.47 382.13"
fill="none" stroke="RGB(159,127,255)" stroke-width="0.5"/>
<path d="M 378.88 384.82 A 127.848 127.848 0 0 0 378.89 384.82"
fill="none" stroke="RGB(159,127,255)" stroke-width="0.5"/>
<path d="M 372.33 386.29 A 123.977 123.977 0 0 0 373.69 385.63"
fill="none" stroke="RGB(159,127,255)" stroke-width="0.5"/>
<path d="M 372.33 386.29 A 123.977 123.977 0 0 0 373.69 385.63"
fill="none" stroke="RGB(159,127,255)" stroke-width="0.5"/>
<path d="M 405.15 364.71 A 126.852 126.852 0 0 0 425.87 339.53"
fill="none" stroke="RGB(159,127,255)" stroke-width="0.5"/>
<path d="M 401.43 370.14 A 128.417 128.417 0 0 0 406.23 365.86"
fill="none" stroke="RGB(159,127,255)" stroke-width="0.5"/>
<path d="M606.33 328.65L607.8 329.89"
fill="none" stroke="RGB(159,127,255)" stroke-width="0.5"/>
<path d="M607.8 329.89L609.48 330.82"
fill="none" stroke="RGB(159,127,255)" stroke-width="0.5"/>
<path d="M609.48 330.82L611.31 331.41"
fill="none" stroke="RGB(159,127,255)" stroke-width="0.5"/>
<path d="M611.31 331.41L613.22 331.64"
fill="none" stroke="RGB(159,127,255)" stroke-width="0.5"/>
<path d="M613.22 331.64L615.14 331.49"
fill="none" stroke="RGB(159,127,255)" stroke-width="0.5"/>
<path d="M615.14 331.49L616.99 330.99"
fill="none" stroke="RGB(159,127,255)" stroke-width="0.5"/>
<path d="M616.99 330.99L618.71 330.13"
fill="none" stroke="RGB(159,127,255)" stroke-width="0.5"/>
<path d="M618.71 330.13L620.24 328.96"
fill="none" stroke="RGB(159,127,255)" stroke-width="0.5"/>
<path d="M620.24 328.96L621.51 327.52"
fill="none" stroke="RGB(159,127,255)" stroke-width="0.5"/>
<path d="M451.49 318.4L503.57 318.4"
fill="none" stroke="RGB(159,127,255)" stroke-width="0.5"/>
<path d="M506.24 326.37L506.24 329.43Z"
fill="none" stroke="RGB(159,127,255)" stroke-width="0.5"/>
<path d="M499.19 328.79L501.24 330.28"
fill="none" stroke="RGB(159,127,255)" stroke-width="0.5"/>
<path d="M501.24 330.28L503.5 331.43"
fill="none" stroke="RGB(159,127,255)" stroke-width="0.5"/>
<path d="M503.5 331.43L505.91 332.21"
fill="none" stroke="RGB(159,127,255)" stroke-width="0.5"/>
<path d="M505.91 332.21L508.41 332.6"
fill="none" stroke="RGB(159,127,255)" stroke-width="0.5"/>
<path d="M508.41 332.6L510.95 332.6"
fill="none" stroke="RGB(159,127,255)" stroke-width="0.5"/>
<path d="M510.95 332.6L513.45 332.21"
fill="none" stroke="RGB(159,127,255)" stroke-width="0.5"/>
<path d="M513.45 332.21L515.86 331.43"
fill="none" stroke="RGB(159,127,255)" stroke-width="0.5"/>
<path d="M515.86 331.43L518.12 330.28"
fill="none" stroke="RGB(159,127,255)" stroke-width="0.5"/>
<path d="M518.12 330.28L520.17 328.79"
fill="none" stroke="RGB(159,127,255)" stroke-width="0.5"/>
<path d="M290.45 428.29L297.71 428.29"
fill="none" stroke="RGB(159,127,255)" stroke-width="0.5"/>
<path d="M297.71 429.1L297.71 428.29Z"
fill="none" stroke="RGB(159,127,255)" stroke-width="0.5"/>
<path d="M301.51 435.62L301.51 428.36Z"
fill="none" stroke="RGB(159,127,255)" stroke-width="0.5"/>
<path d="M300.7 429.07L300.7 428.36Z"
fill="none" stroke="RGB(159,127,255)" stroke-width="0.5"/>
<path d="M300.7 428.36L301.51 428.36"
fill="none" stroke="RGB(159,127,255)" stroke-width="0.5"/>
<path d="M361.97 393.17L355.78 393.17"
fill="none" stroke="RGB(159,127,255)" stroke-width="0.5"/>
<path d="M361.97 393.17L367.14 392.49"
fill="none" stroke="RGB(159,127,255)" stroke-width="0.5"/>
<path d="M367.14 392.49L372.26 391.46"
fill="none" stroke="RGB(159,127,255)" stroke-width="0.5"/>
<path d="M372.26 391.46L377.28 390.06"
fill="none" stroke="RGB(159,127,255)" stroke-width="0.5"/>
<path d="M377.28 390.06L382.2 388.3"
fill="none" stroke="RGB(159,127,255)" stroke-width="0.5"/>
<path d="M382.2 388.3L386.98 386.2"
fill="none" stroke="RGB(159,127,255)" stroke-width="0.5"/>
<path d="M386.98 386.2L391.59 383.77"
fill="none" stroke="RGB(159,127,255)" stroke-width="0.5"/>
<path d="M391.59 383.77L396.03 381.02"
fill="none" stroke="RGB(159,127,255)" stroke-width="0.5"/>
<path d="M396.03 381.02L400.25 377.95"
fill="none" stroke="RGB(159,127,255)" stroke-width="0.5"/>
<path d="M400.25 377.95L404.25 374.6"
fill="none" stroke="RGB(159,127,255)" stroke-width="0.5"/>
<path d="M404.25 374.6L408 370.97"
fill="none" stroke="RGB(159,127,255)" stroke-width="0.5"/>
<path d="M408 370.97L411.48 367.08"
fill="none" stroke="RGB(159,127,255)" stroke-width="0.5"/>
<path d="M411.48 367.08L414.67 362.96"
fill="none" stroke="RGB(159,127,255)" stroke-width="0.5"/>
<path d="M414.67 362.96L417.57 358.61"
fill="none" stroke="RGB(159,127,255)" stroke-width="0.5"/>
<path d="M417.57 358.61L420.15 354.08"
fill="none" stroke="RGB(159,127,255)" stroke-width="0.5"/>
<path d="M420.15 354.08L422.4 349.37"
fill="none" stroke="RGB(159,127,255)" stroke-width="0.5"/>
<path d="M422.4 349.37L424.31 344.51"
fill="none" stroke="RGB(159,127,255)" stroke-width="0.5"/>
<path d="M424.31 344.51L425.87 339.53"
fill="none" stroke="RGB(159,127,255)" stroke-width="0.5"/>
<path d="M512.79 326.42L512.8 329.43Z"
fill="none" stroke="RGB(159,127,255)" stroke-width="0.5"/>
<path d="M506.24 326.37L503.57 326.37"
fill="none" stroke="RGB(159,127,255)" stroke-width="0.5"/>
<path d="M529.76 326.94L607.47 326.94"
fill="none" stroke="RGB(159,127,255)" stroke-width="0.5"/>
<path d="M644.04 326.94L646.46 326.94"
fill="none" stroke="RGB(159,127,255)" stroke-width="0.5"/>
<path d="M687.28 280.94L687.75 281.34"
fill="none" stroke="RGB(159,127,255)" stroke-width="0.5"/>
<path d="M140.66 182.63L140.66 222.48Z"
fill="none" stroke="RGB(159,127,255)" stroke-width="0.5"/>
<path d="M646.46 314.06L646.46 314.38Z"
fill="none" stroke="RGB(159,127,255)" stroke-width="0.5"/>
<path d="M262.36 384.98L264.29 384.98"
fill="none" stroke="RGB(159,127,255)" stroke-width="0.5"/>
<path d="M266.85 384.98L272.99 384.98"
fill="none" stroke="RGB(159,127,255)" stroke-width="0.5"/>
<path d="M275.55 384.98L277.14 384.98"
fill="none" stroke="RGB(159,127,255)" stroke-width="0.5"/>
<path d="M277.14 384.98L277.14 388.57Z"
fill="none" stroke="RGB(159,127,255)" stroke-width="0.5"/>
<path d="M277.14 388.57L275.55 388.57"
fill="none" stroke="RGB(159,127,255)" stroke-width="0.5"/>
<path d="M272.99 388.57L266.85 388.57"
fill="none" stroke="RGB(159,127,255)" stroke-width="0.5"/>
<path d="M264.33 388.57L262.35 388.57"
fill="none" stroke="RGB(159,127,255)" stroke-width="0.5"/>
<path d="M262.34 391.06L262.36 384.98"
fill="none" stroke="RGB(159,127,255)" stroke-width="0.5"/>
<path d="M383.26 420.87L390.52 420.87"
fill="none" stroke="RGB(159,127,255)" stroke-width="0.5"/>
<path d="M390.52 421.69L390.52 420.87Z"
fill="none" stroke="RGB(159,127,255)" stroke-width="0.5"/>
<path d="M394.32 428.21L394.32 420.95Z"
fill="none" stroke="RGB(159,127,255)" stroke-width="0.5"/>
<path d="M393.51 421.66L393.51 420.95Z"
fill="none" stroke="RGB(159,127,255)" stroke-width="0.5"/>
<path d="M393.51 420.95L394.32 420.95"
fill="none" stroke="RGB(159,127,255)" stroke-width="0.5"/>
<path d="M515.46 356.33L515.46 363.82Z"
fill="none" stroke="RGB(159,127,255)" stroke-width="0.5"/>
</svg>
