<?xml version="1.0" encoding="UTF-8"?>
<!-- <svg xmlns="http://www.w3.org/2000/svg" width="800.000" height="600.000" viewBox="0.0 0.0 800.000 600.000" version="1.1"> -->
<svg xmlns="http://www.w3.org/2000/svg" width="100%" height="100%" viewBox="0.0 0.0 800.000 600.000" preserveAspectRatio="xMidYMin" style="transwormOrigin:center" version="1.1">
<path d="M161.04 314.38L161.15 314.27 161.04 311.8 161.04 314.38Z"
fill="gray" stroke="gray" stroke-width="0.2"/>
<path d="M161.15 314.27L161.15 311.8 161.04 311.8 161.15 314.27Z"
fill="gray" stroke="gray" stroke-width="0.2"/>
<path d="M161.15 314.38L161.15 314.27 161.04 314.38 161.15 314.38Z"
fill="gray" stroke="gray" stroke-width="0.2"/>
<path d="M161.15 314.38L165.25 314.41 161.15 314.27 161.15 314.38Z"
fill="gray" stroke="gray" stroke-width="0.2"/>
<path d="M165.25 314.41L165.25 314.31 161.15 314.27 165.25 314.41Z"
fill="gray" stroke="gray" stroke-width="0.2"/>
<path d="M165.25 314.41L165.25 314.31 165.25 314.31 165.25 314.41Z"
fill="gray" stroke="gray" stroke-width="0.2"/>
<path d="M64.26 100.64L169.94 100.64"
fill="none" stroke="gray" stroke-width="0.5"/>
<path d="M169.94 100.92L64.54 100.92"
fill="none" stroke="gray" stroke-width="0.5"/>
<path d="M184.39 104.46L217.51 104.46"
fill="none" stroke="gray" stroke-width="0.5"/>
<path d="M64.54 100.92L64.54 104.46Z"
fill="none" stroke="gray" stroke-width="0.5"/>
<path d="M370.42 105.17L320.16 105.17"
fill="none" stroke="gray" stroke-width="0.5"/>
<path d="M320.16 105.17L320.16 104.46Z"
fill="none" stroke="gray" stroke-width="0.5"/>
<path d="M434.13 105.17L383.87 105.17"
fill="none" stroke="gray" stroke-width="0.5"/>
<path d="M497.84 105.17L447.58 105.17"
fill="none" stroke="gray" stroke-width="0.5"/>
<path d="M447.58 105.17L447.58 104.46Z"
fill="none" stroke="gray" stroke-width="0.5"/>
<path d="M447.58 104.46L447.58 102.2Z"
fill="none" stroke="gray" stroke-width="0.5"/>
<path d="M235.64 102.34L217.66 102.34"
fill="none" stroke="gray" stroke-width="0.5"/>
<path d="M230.96 104.46L306.71 104.46"
fill="none" stroke="gray" stroke-width="0.5"/>
<path d="M306.71 105.17L230.96 105.17"
fill="none" stroke="gray" stroke-width="0.5"/>
<path d="M230.96 105.17L230.96 104.46Z"
fill="none" stroke="gray" stroke-width="0.5"/>
<path d="M302.04 102.2L324.83 102.2"
fill="none" stroke="gray" stroke-width="0.5"/>
<path d="M324.83 102.34L302.04 102.34"
fill="none" stroke="gray" stroke-width="0.5"/>
<path d="M217.66 102.34L217.66 105.17Z"
fill="none" stroke="gray" stroke-width="0.5"/>
<path d="M320.16 104.46L320.16 102.2Z"
fill="none" stroke="gray" stroke-width="0.5"/>
<path d="M217.51 104.46L217.51 102.2Z"
fill="none" stroke="gray" stroke-width="0.5"/>
<path d="M429.46 102.2L452.25 102.2"
fill="none" stroke="gray" stroke-width="0.5"/>
<path d="M429.46 102.34L452.25 102.34"
fill="none" stroke="gray" stroke-width="0.5"/>
<path d="M429.46 102.2L429.46 104.46Z"
fill="none" stroke="gray" stroke-width="0.5"/>
<path d="M434.13 103.4L433.71 104.46"
fill="none" stroke="gray" stroke-width="0.5"/>
<path d="M434.13 103.4L433.71 102.34"
fill="none" stroke="gray" stroke-width="0.5"/>
<path d="M430.73 102.34L430.73 104.46Z"
fill="none" stroke="gray" stroke-width="0.5"/>
<path d="M431.16 102.34L431.16 104.46Z"
fill="none" stroke="gray" stroke-width="0.5"/>
<path d="M431.58 102.34L431.58 104.46Z"
fill="none" stroke="gray" stroke-width="0.5"/>
<path d="M432.01 102.34L432.01 104.46Z"
fill="none" stroke="gray" stroke-width="0.5"/>
<path d="M432.43 102.34L432.43 104.46Z"
fill="none" stroke="gray" stroke-width="0.5"/>
<path d="M432.86 102.34L432.86 104.46Z"
fill="none" stroke="gray" stroke-width="0.5"/>
<path d="M433.28 102.34L433.28 104.46Z"
fill="none" stroke="gray" stroke-width="0.5"/>
<path d="M433.71 102.34L433.71 104.46Z"
fill="none" stroke="gray" stroke-width="0.5"/>
<path d="M430.31 102.34L430.31 104.46Z"
fill="none" stroke="gray" stroke-width="0.5"/>
<path d="M429.88 102.34L429.88 104.46Z"
fill="none" stroke="gray" stroke-width="0.5"/>
<path d="M429.46 103.4L434.13 103.4"
fill="none" stroke="gray" stroke-width="0.5"/>
<path d="M452.25 102.2L452.25 104.46Z"
fill="none" stroke="gray" stroke-width="0.5"/>
<path d="M447.58 103.4L448.01 104.46"
fill="none" stroke="gray" stroke-width="0.5"/>
<path d="M447.58 103.4L448.01 102.34"
fill="none" stroke="gray" stroke-width="0.5"/>
<path d="M450.98 102.34L450.98 104.46Z"
fill="none" stroke="gray" stroke-width="0.5"/>
<path d="M450.55 102.34L450.55 104.46Z"
fill="none" stroke="gray" stroke-width="0.5"/>
<path d="M450.13 102.34L450.13 104.46Z"
fill="none" stroke="gray" stroke-width="0.5"/>
<path d="M449.7 102.34L449.7 104.46Z"
fill="none" stroke="gray" stroke-width="0.5"/>
<path d="M449.28 102.34L449.28 104.46Z"
fill="none" stroke="gray" stroke-width="0.5"/>
<path d="M448.85 102.34L448.85 104.46Z"
fill="none" stroke="gray" stroke-width="0.5"/>
<path d="M448.43 102.34L448.43 104.46Z"
fill="none" stroke="gray" stroke-width="0.5"/>
<path d="M448.01 102.34L448.01 104.46Z"
fill="none" stroke="gray" stroke-width="0.5"/>
<path d="M451.4 102.34L451.4 104.46Z"
fill="none" stroke="gray" stroke-width="0.5"/>
<path d="M451.83 102.34L451.83 104.46Z"
fill="none" stroke="gray" stroke-width="0.5"/>
<path d="M452.25 103.4L447.58 103.4"
fill="none" stroke="gray" stroke-width="0.5"/>
<path d="M306.71 104.46L306.71 102.2Z"
fill="none" stroke="gray" stroke-width="0.5"/>
<path d="M302.04 102.2L302.04 104.46Z"
fill="none" stroke="gray" stroke-width="0.5"/>
<path d="M306.71 103.4L306.28 104.46"
fill="none" stroke="gray" stroke-width="0.5"/>
<path d="M306.71 103.4L306.28 102.34"
fill="none" stroke="gray" stroke-width="0.5"/>
<path d="M303.31 102.34L303.31 104.46Z"
fill="none" stroke="gray" stroke-width="0.5"/>
<path d="M303.74 102.34L303.74 104.46Z"
fill="none" stroke="gray" stroke-width="0.5"/>
<path d="M304.16 102.34L304.16 104.46Z"
fill="none" stroke="gray" stroke-width="0.5"/>
<path d="M304.59 102.34L304.59 104.46Z"
fill="none" stroke="gray" stroke-width="0.5"/>
<path d="M305.01 102.34L305.01 104.46Z"
fill="none" stroke="gray" stroke-width="0.5"/>
<path d="M305.44 102.34L305.44 104.46Z"
fill="none" stroke="gray" stroke-width="0.5"/>
<path d="M305.86 102.34L305.86 104.46Z"
fill="none" stroke="gray" stroke-width="0.5"/>
<path d="M306.28 102.34L306.28 104.46Z"
fill="none" stroke="gray" stroke-width="0.5"/>
<path d="M302.89 102.34L302.89 104.46Z"
fill="none" stroke="gray" stroke-width="0.5"/>
<path d="M302.46 102.34L302.46 104.46Z"
fill="none" stroke="gray" stroke-width="0.5"/>
<path d="M302.04 103.4L306.71 103.4"
fill="none" stroke="gray" stroke-width="0.5"/>
<path d="M324.83 102.2L324.83 104.46Z"
fill="none" stroke="gray" stroke-width="0.5"/>
<path d="M320.16 103.4L320.58 104.46"
fill="none" stroke="gray" stroke-width="0.5"/>
<path d="M320.16 103.4L320.58 102.34"
fill="none" stroke="gray" stroke-width="0.5"/>
<path d="M323.56 102.34L323.56 104.46Z"
fill="none" stroke="gray" stroke-width="0.5"/>
<path d="M323.13 102.34L323.13 104.46Z"
fill="none" stroke="gray" stroke-width="0.5"/>
<path d="M322.71 102.34L322.71 104.46Z"
fill="none" stroke="gray" stroke-width="0.5"/>
<path d="M322.28 102.34L322.28 104.46Z"
fill="none" stroke="gray" stroke-width="0.5"/>
<path d="M321.86 102.34L321.86 104.46Z"
fill="none" stroke="gray" stroke-width="0.5"/>
<path d="M321.43 102.34L321.43 104.46Z"
fill="none" stroke="gray" stroke-width="0.5"/>
<path d="M321.01 102.34L321.01 104.46Z"
fill="none" stroke="gray" stroke-width="0.5"/>
<path d="M320.58 102.34L320.58 104.46Z"
fill="none" stroke="gray" stroke-width="0.5"/>
<path d="M323.98 102.34L323.98 104.46Z"
fill="none" stroke="gray" stroke-width="0.5"/>
<path d="M324.41 102.34L324.41 104.46Z"
fill="none" stroke="gray" stroke-width="0.5"/>
<path d="M324.83 103.4L320.16 103.4"
fill="none" stroke="gray" stroke-width="0.5"/>
<path d="M217.51 102.2L235.64 102.2"
fill="none" stroke="gray" stroke-width="0.5"/>
<path d="M217.66 105.17L206.17 105.17"
fill="none" stroke="gray" stroke-width="0.5"/>
<path d="M230.96 104.46L230.96 102.2Z"
fill="none" stroke="gray" stroke-width="0.5"/>
<path d="M235.64 102.2L235.64 104.46Z"
fill="none" stroke="gray" stroke-width="0.5"/>
<path d="M230.96 103.4L231.39 104.46"
fill="none" stroke="gray" stroke-width="0.5"/>
<path d="M230.96 103.4L231.39 102.34"
fill="none" stroke="gray" stroke-width="0.5"/>
<path d="M234.36 102.34L234.36 104.46Z"
fill="none" stroke="gray" stroke-width="0.5"/>
<path d="M233.94 102.34L233.94 104.46Z"
fill="none" stroke="gray" stroke-width="0.5"/>
<path d="M233.51 102.34L233.51 104.46Z"
fill="none" stroke="gray" stroke-width="0.5"/>
<path d="M233.09 102.34L233.09 104.46Z"
fill="none" stroke="gray" stroke-width="0.5"/>
<path d="M232.66 102.34L232.66 104.46Z"
fill="none" stroke="gray" stroke-width="0.5"/>
<path d="M232.24 102.34L232.24 104.46Z"
fill="none" stroke="gray" stroke-width="0.5"/>
<path d="M231.81 102.34L231.81 104.46Z"
fill="none" stroke="gray" stroke-width="0.5"/>
<path d="M231.39 102.34L231.39 104.46Z"
fill="none" stroke="gray" stroke-width="0.5"/>
<path d="M234.79 102.34L234.79 104.46Z"
fill="none" stroke="gray" stroke-width="0.5"/>
<path d="M235.21 102.34L235.21 104.46Z"
fill="none" stroke="gray" stroke-width="0.5"/>
<path d="M235.64 103.4L230.96 103.4"
fill="none" stroke="gray" stroke-width="0.5"/>
<path d="M64.26 100.64L64.26 117.24Z"
fill="none" stroke="gray" stroke-width="0.5"/>
<path d="M62.41 210.22L62.41 220.93Z"
fill="none" stroke="gray" stroke-width="0.5"/>
<path d="M68.15 317.11L281.47 317.11"
fill="none" stroke="gray" stroke-width="0.5"/>
<path d="M281.44 317.4L68.15 317.4"
fill="none" stroke="gray" stroke-width="0.5"/>
<path d="M579.25 104.46L597.32 104.46"
fill="none" stroke="gray" stroke-width="0.5"/>
<path d="M597.32 104.46L611.48 118.62"
fill="none" stroke="gray" stroke-width="0.5"/>
<path d="M359.45 277.05L359.45 284.69Z"
fill="none" stroke="gray" stroke-width="0.5"/>
<path d="M576 251.69L650.75 177.59"
fill="none" stroke="gray" stroke-width="0.5"/>
<path d="M416.51 313.8L521.67 313.8"
fill="none" stroke="gray" stroke-width="0.5"/>
<path d="M416.51 314.51L518.31 314.51"
fill="none" stroke="gray" stroke-width="0.5"/>
<path d="M421.67 276.83L421.67 284.69Z"
fill="none" stroke="gray" stroke-width="0.5"/>
<path d="M396.26 284.48L396.26 276.83Z"
fill="none" stroke="gray" stroke-width="0.5"/>
<path d="M418.34 284.48L418.34 276.83Z"
fill="none" stroke="gray" stroke-width="0.5"/>
<path d="M414.66 284.48L414.66 276.83Z"
fill="none" stroke="gray" stroke-width="0.5"/>
<path d="M62.13 154.56L62.13 220.93Z"
fill="none" stroke="gray" stroke-width="0.5"/>
<path d="M51.94 154.56L51.94 311.38Z"
fill="none" stroke="gray" stroke-width="0.5"/>
<path d="M50.1 154.56L50.1 332.11Z"
fill="none" stroke="gray" stroke-width="0.5"/>
<path d="M50.38 154.56L50.38 331.46Z"
fill="none" stroke="gray" stroke-width="0.5"/>
<path d="M410.98 284.48L410.98 276.83Z"
fill="none" stroke="gray" stroke-width="0.5"/>
<path d="M407.3 284.48L407.3 276.83Z"
fill="none" stroke="gray" stroke-width="0.5"/>
<path d="M403.62 284.48L403.62 276.83Z"
fill="none" stroke="gray" stroke-width="0.5"/>
<path d="M399.94 284.48L399.94 276.83Z"
fill="none" stroke="gray" stroke-width="0.5"/>
<path d="M392.58 284.48L392.58 276.83Z"
fill="none" stroke="gray" stroke-width="0.5"/>
<path d="M388.9 284.48L388.9 276.83Z"
fill="none" stroke="gray" stroke-width="0.5"/>
<path d="M385.22 284.48L385.22 276.83Z"
fill="none" stroke="gray" stroke-width="0.5"/>
<path d="M381.53 284.48L381.53 276.83Z"
fill="none" stroke="gray" stroke-width="0.5"/>
<path d="M377.85 284.48L377.85 276.83Z"
fill="none" stroke="gray" stroke-width="0.5"/>
<path d="M374.17 284.48L374.17 276.83Z"
fill="none" stroke="gray" stroke-width="0.5"/>
<path d="M57.18 299.42L57.18 248.45Z"
fill="none" stroke="gray" stroke-width="0.5"/>
<path d="M57.18 248.45L50.1 250.88"
fill="none" stroke="gray" stroke-width="0.5"/>
<path d="M57.18 248.45L64.26 250.88"
fill="none" stroke="gray" stroke-width="0.5"/>
<path d="M62.13 311.38L62.13 237.74Z"
fill="none" stroke="gray" stroke-width="0.5"/>
<path d="M368.79 307.2L357.75 307.2"
fill="none" stroke="gray" stroke-width="0.5"/>
<path d="M361.43 299.56L361.43 307.2Z"
fill="none" stroke="gray" stroke-width="0.5"/>
<path d="M365.11 299.56L365.11 307.2Z"
fill="none" stroke="gray" stroke-width="0.5"/>
<path d="M357.75 299.56L357.75 307.2Z"
fill="none" stroke="gray" stroke-width="0.5"/>
<path d="M343.52 307.55L348.92 312.96"
fill="none" stroke="gray" stroke-width="0.5"/>
<path d="M346.12 304.95L351.53 310.35"
fill="none" stroke="gray" stroke-width="0.5"/>
<path d="M340.92 310.15L346.32 315.56"
fill="none" stroke="gray" stroke-width="0.5"/>
<path d="M338.31 312.76L343.72 318.16"
fill="none" stroke="gray" stroke-width="0.5"/>
<path d="M335.71 315.36L341.12 320.77"
fill="none" stroke="gray" stroke-width="0.5"/>
<path d="M333.11 317.96L338.51 323.37"
fill="none" stroke="gray" stroke-width="0.5"/>
<path d="M330.5 320.57L335.91 325.97"
fill="none" stroke="gray" stroke-width="0.5"/>
<path d="M327.7 323.37L333.31 328.98"
fill="none" stroke="gray" stroke-width="0.5"/>
<path d="M368.79 307.2L368.79 299.56Z"
fill="none" stroke="gray" stroke-width="0.5"/>
<path d="M576 251.69L352.58 250.96"
fill="none" stroke="gray" stroke-width="0.5"/>
<path d="M76.31 333.34L85.52 337.95"
fill="none" stroke="gray" stroke-width="0.5"/>
<path d="M76.43 333.09L85.64 337.69"
fill="none" stroke="gray" stroke-width="0.5"/>
<path d="M110.55 327.31L100.22 327.31"
fill="none" stroke="gray" stroke-width="0.5"/>
<path d="M110.55 327.59L100.22 327.59"
fill="none" stroke="gray" stroke-width="0.5"/>
<path d="M113.03 329.78L97.74 329.78"
fill="none" stroke="gray" stroke-width="0.5"/>
<path d="M112.73 329.5L98.04 329.5"
fill="none" stroke="gray" stroke-width="0.5"/>
<path d="M113.03 333.47L105.38 333.47"
fill="none" stroke="gray" stroke-width="0.5"/>
<path d="M97.74 333.47L105.38 333.47"
fill="none" stroke="gray" stroke-width="0.5"/>
<path d="M113.03 337.15L105.38 337.15"
fill="none" stroke="gray" stroke-width="0.5"/>
<path d="M97.74 337.15L105.38 337.15"
fill="none" stroke="gray" stroke-width="0.5"/>
<path d="M113.03 340.83L105.38 340.83"
fill="none" stroke="gray" stroke-width="0.5"/>
<path d="M97.74 340.83L105.38 340.83"
fill="none" stroke="gray" stroke-width="0.5"/>
<path d="M86.62 327.31L77.73 327.31"
fill="none" stroke="gray" stroke-width="0.5"/>
<path d="M86.62 327.59L77.73 327.59"
fill="none" stroke="gray" stroke-width="0.5"/>
<path d="M89.1 329.78L81.46 329.78"
fill="none" stroke="gray" stroke-width="0.5"/>
<path d="M88.8 329.5L81.17 329.5"
fill="none" stroke="gray" stroke-width="0.5"/>
<path d="M89.1 333.47L81.46 333.47"
fill="none" stroke="gray" stroke-width="0.5"/>
<path d="M88.82 333.75L81.17 333.75"
fill="none" stroke="gray" stroke-width="0.5"/>
<path d="M81.46 333.47L81.46 329.78Z"
fill="none" stroke="gray" stroke-width="0.5"/>
<path d="M81.17 333.75L81.17 329.5Z"
fill="none" stroke="gray" stroke-width="0.5"/>
<path d="M50.38 331.46L69.43 340.98"
fill="none" stroke="gray" stroke-width="0.5"/>
<path d="M45.82 148.17L51.62 150.91"
fill="none" stroke="gray" stroke-width="0.5"/>
<path d="M49.09 149.72L64.05 118.15"
fill="none" stroke="gray" stroke-width="0.5"/>
<path d="M50.37 150.32L64.76 119.96"
fill="none" stroke="gray" stroke-width="0.5"/>
<path d="M51.62 150.91L50.65 153.82"
fill="none" stroke="gray" stroke-width="0.5"/>
<path d="M50.65 153.82L53.92 148.64"
fill="none" stroke="gray" stroke-width="0.5"/>
<path d="M53.92 148.64L52.96 151.55"
fill="none" stroke="gray" stroke-width="0.5"/>
<path d="M52.96 151.55L58.75 154.29"
fill="none" stroke="gray" stroke-width="0.5"/>
<path d="M52.22 151.2L52.22 151.2Z"
fill="none" stroke="gray" stroke-width="0.5"/>
<path d="M56.13 153.05L60.21 144.43"
fill="none" stroke="gray" stroke-width="0.5"/>
<path d="M54.85 152.45L60.92 139.63"
fill="none" stroke="gray" stroke-width="0.5"/>
<path d="M64.96 140.54L64.96 147.01Z"
fill="none" stroke="gray" stroke-width="0.5"/>
<path d="M598.02 105.17L579.25 105.17"
fill="none" stroke="gray" stroke-width="0.5"/>
<path d="M579.25 102.05L579.25 104.46Z"
fill="none" stroke="gray" stroke-width="0.5"/>
<path d="M566.51 104.46L566.51 102.05Z"
fill="none" stroke="gray" stroke-width="0.5"/>
<path d="M566.51 104.46L566.51 105.17Z"
fill="none" stroke="gray" stroke-width="0.5"/>
<path d="M566.51 105.17L511.29 105.17"
fill="none" stroke="gray" stroke-width="0.5"/>
<path d="M579.25 102.05L566.51 102.05"
fill="none" stroke="gray" stroke-width="0.5"/>
<path d="M447.58 104.46L566.51 104.46"
fill="none" stroke="gray" stroke-width="0.5"/>
<path d="M320.16 104.46L434.13 104.46"
fill="none" stroke="gray" stroke-width="0.5"/>
<path d="M434.13 105.17L434.13 102.2Z"
fill="none" stroke="gray" stroke-width="0.5"/>
<path d="M64.96 140.54L64.96 144.17Z"
fill="none" stroke="gray" stroke-width="0.5"/>
<path d="M89.1 333.47L89.1 335.73Z"
fill="none" stroke="gray" stroke-width="0.5"/>
<path d="M88.82 333.75L88.82 335.73Z"
fill="none" stroke="gray" stroke-width="0.5"/>
<path d="M62.41 237.74L62.41 311.39Z"
fill="none" stroke="gray" stroke-width="0.5"/>
<path d="M62.13 237.74L62.13 311.38Z"
fill="none" stroke="gray" stroke-width="0.5"/>
<path d="M62.41 237.74L62.41 311.38Z"
fill="none" stroke="gray" stroke-width="0.5"/>
<path d="M459.61 295.95L552.94 295.95"
fill="none" stroke="gray" stroke-width="0.5"/>
<path d="M457.42 307.49L457.42 298.14Z"
fill="none" stroke="gray" stroke-width="0.5"/>
<path d="M459.61 295.66L553.25 295.66"
fill="none" stroke="gray" stroke-width="0.5"/>
<path d="M457.14 307.2L387.2 307.2"
fill="none" stroke="gray" stroke-width="0.5"/>
<path d="M457.42 307.49L386.92 307.49"
fill="none" stroke="gray" stroke-width="0.5"/>
<path d="M449.78 299.56L449.78 307.2Z"
fill="none" stroke="gray" stroke-width="0.5"/>
<path d="M453.46 299.56L453.46 307.2Z"
fill="none" stroke="gray" stroke-width="0.5"/>
<path d="M442.41 299.56L442.41 307.2Z"
fill="none" stroke="gray" stroke-width="0.5"/>
<path d="M446.09 299.56L446.09 307.2Z"
fill="none" stroke="gray" stroke-width="0.5"/>
<path d="M435.05 299.56L435.05 307.2Z"
fill="none" stroke="gray" stroke-width="0.5"/>
<path d="M438.73 299.56L438.73 307.2Z"
fill="none" stroke="gray" stroke-width="0.5"/>
<path d="M427.69 299.56L427.69 307.2Z"
fill="none" stroke="gray" stroke-width="0.5"/>
<path d="M431.37 299.56L431.37 307.2Z"
fill="none" stroke="gray" stroke-width="0.5"/>
<path d="M420.33 299.56L420.33 307.2Z"
fill="none" stroke="gray" stroke-width="0.5"/>
<path d="M424.01 299.56L424.01 307.2Z"
fill="none" stroke="gray" stroke-width="0.5"/>
<path d="M412.97 299.56L412.97 307.2Z"
fill="none" stroke="gray" stroke-width="0.5"/>
<path d="M416.65 299.56L416.65 307.2Z"
fill="none" stroke="gray" stroke-width="0.5"/>
<path d="M405.6 299.56L405.6 307.2Z"
fill="none" stroke="gray" stroke-width="0.5"/>
<path d="M409.28 299.56L409.28 307.2Z"
fill="none" stroke="gray" stroke-width="0.5"/>
<path d="M398.24 299.56L398.24 307.2Z"
fill="none" stroke="gray" stroke-width="0.5"/>
<path d="M401.92 299.56L401.92 307.2Z"
fill="none" stroke="gray" stroke-width="0.5"/>
<path d="M230.19 327.31L219.85 327.31"
fill="none" stroke="gray" stroke-width="0.5"/>
<path d="M230.19 327.59L219.85 327.59"
fill="none" stroke="gray" stroke-width="0.5"/>
<path d="M232.66 329.78L217.37 329.78"
fill="none" stroke="gray" stroke-width="0.5"/>
<path d="M232.36 329.5L217.67 329.5"
fill="none" stroke="gray" stroke-width="0.5"/>
<path d="M232.66 333.47L225.02 333.47"
fill="none" stroke="gray" stroke-width="0.5"/>
<path d="M217.37 333.47L225.02 333.47"
fill="none" stroke="gray" stroke-width="0.5"/>
<path d="M232.66 337.15L225.02 337.15"
fill="none" stroke="gray" stroke-width="0.5"/>
<path d="M217.37 337.15L225.02 337.15"
fill="none" stroke="gray" stroke-width="0.5"/>
<path d="M232.66 340.83L225.02 340.83"
fill="none" stroke="gray" stroke-width="0.5"/>
<path d="M217.37 340.83L225.02 340.83"
fill="none" stroke="gray" stroke-width="0.5"/>
<path d="M243.78 327.31L254.11 327.31"
fill="none" stroke="gray" stroke-width="0.5"/>
<path d="M243.78 327.59L254.11 327.59"
fill="none" stroke="gray" stroke-width="0.5"/>
<path d="M241.3 329.78L256.59 329.78"
fill="none" stroke="gray" stroke-width="0.5"/>
<path d="M241.6 329.5L256.29 329.5"
fill="none" stroke="gray" stroke-width="0.5"/>
<path d="M241.3 333.47L248.95 333.47"
fill="none" stroke="gray" stroke-width="0.5"/>
<path d="M256.59 333.47L248.95 333.47"
fill="none" stroke="gray" stroke-width="0.5"/>
<path d="M241.3 337.15L248.95 337.15"
fill="none" stroke="gray" stroke-width="0.5"/>
<path d="M256.59 337.15L248.95 337.15"
fill="none" stroke="gray" stroke-width="0.5"/>
<path d="M241.3 340.83L248.95 340.83"
fill="none" stroke="gray" stroke-width="0.5"/>
<path d="M256.59 340.83L248.95 340.83"
fill="none" stroke="gray" stroke-width="0.5"/>
<path d="M267.7 327.31L278.04 327.31"
fill="none" stroke="gray" stroke-width="0.5"/>
<path d="M267.7 327.59L278.04 327.59"
fill="none" stroke="gray" stroke-width="0.5"/>
<path d="M265.23 329.78L280.52 329.78"
fill="none" stroke="gray" stroke-width="0.5"/>
<path d="M265.53 329.5L280.22 329.5"
fill="none" stroke="gray" stroke-width="0.5"/>
<path d="M265.23 333.47L272.87 333.47"
fill="none" stroke="gray" stroke-width="0.5"/>
<path d="M280.52 333.47L272.87 333.47"
fill="none" stroke="gray" stroke-width="0.5"/>
<path d="M265.23 337.15L272.87 337.15"
fill="none" stroke="gray" stroke-width="0.5"/>
<path d="M280.52 337.15L272.87 337.15"
fill="none" stroke="gray" stroke-width="0.5"/>
<path d="M265.23 340.83L272.87 340.83"
fill="none" stroke="gray" stroke-width="0.5"/>
<path d="M280.52 340.83L272.87 340.83"
fill="none" stroke="gray" stroke-width="0.5"/>
<path d="M206.26 327.31L195.92 327.31"
fill="none" stroke="gray" stroke-width="0.5"/>
<path d="M206.26 327.59L195.92 327.59"
fill="none" stroke="gray" stroke-width="0.5"/>
<path d="M208.74 329.78L193.45 329.78"
fill="none" stroke="gray" stroke-width="0.5"/>
<path d="M208.44 329.5L193.75 329.5"
fill="none" stroke="gray" stroke-width="0.5"/>
<path d="M208.74 333.47L201.09 333.47"
fill="none" stroke="gray" stroke-width="0.5"/>
<path d="M193.45 333.47L201.09 333.47"
fill="none" stroke="gray" stroke-width="0.5"/>
<path d="M208.74 337.15L201.09 337.15"
fill="none" stroke="gray" stroke-width="0.5"/>
<path d="M193.45 337.15L201.09 337.15"
fill="none" stroke="gray" stroke-width="0.5"/>
<path d="M208.74 340.83L201.09 340.83"
fill="none" stroke="gray" stroke-width="0.5"/>
<path d="M193.45 340.83L201.09 340.83"
fill="none" stroke="gray" stroke-width="0.5"/>
<path d="M182.33 327.31L172 327.31"
fill="none" stroke="gray" stroke-width="0.5"/>
<path d="M182.33 327.59L172 327.59"
fill="none" stroke="gray" stroke-width="0.5"/>
<path d="M184.81 329.78L169.52 329.78"
fill="none" stroke="gray" stroke-width="0.5"/>
<path d="M184.51 329.5L169.82 329.5"
fill="none" stroke="gray" stroke-width="0.5"/>
<path d="M184.81 333.47L177.16 333.47"
fill="none" stroke="gray" stroke-width="0.5"/>
<path d="M169.52 333.47L177.16 333.47"
fill="none" stroke="gray" stroke-width="0.5"/>
<path d="M184.81 337.15L177.16 337.15"
fill="none" stroke="gray" stroke-width="0.5"/>
<path d="M169.52 337.15L177.16 337.15"
fill="none" stroke="gray" stroke-width="0.5"/>
<path d="M184.81 340.83L177.16 340.83"
fill="none" stroke="gray" stroke-width="0.5"/>
<path d="M169.52 340.83L177.16 340.83"
fill="none" stroke="gray" stroke-width="0.5"/>
<path d="M158.41 327.31L148.07 327.31"
fill="none" stroke="gray" stroke-width="0.5"/>
<path d="M158.41 327.59L148.07 327.59"
fill="none" stroke="gray" stroke-width="0.5"/>
<path d="M160.88 329.78L145.59 329.78"
fill="none" stroke="gray" stroke-width="0.5"/>
<path d="M160.58 329.5L145.89 329.5"
fill="none" stroke="gray" stroke-width="0.5"/>
<path d="M160.88 333.47L153.24 333.47"
fill="none" stroke="gray" stroke-width="0.5"/>
<path d="M145.59 333.47L153.24 333.47"
fill="none" stroke="gray" stroke-width="0.5"/>
<path d="M160.88 337.15L153.24 337.15"
fill="none" stroke="gray" stroke-width="0.5"/>
<path d="M145.59 337.15L153.24 337.15"
fill="none" stroke="gray" stroke-width="0.5"/>
<path d="M160.88 340.83L153.24 340.83"
fill="none" stroke="gray" stroke-width="0.5"/>
<path d="M145.59 340.83L153.24 340.83"
fill="none" stroke="gray" stroke-width="0.5"/>
<path d="M134.48 327.31L124.14 327.31"
fill="none" stroke="gray" stroke-width="0.5"/>
<path d="M134.48 327.59L124.14 327.59"
fill="none" stroke="gray" stroke-width="0.5"/>
<path d="M136.96 329.78L121.67 329.78"
fill="none" stroke="gray" stroke-width="0.5"/>
<path d="M136.65 329.5L121.97 329.5"
fill="none" stroke="gray" stroke-width="0.5"/>
<path d="M136.96 333.47L129.31 333.47"
fill="none" stroke="gray" stroke-width="0.5"/>
<path d="M121.67 333.47L129.31 333.47"
fill="none" stroke="gray" stroke-width="0.5"/>
<path d="M136.96 337.15L129.31 337.15"
fill="none" stroke="gray" stroke-width="0.5"/>
<path d="M121.67 337.15L129.31 337.15"
fill="none" stroke="gray" stroke-width="0.5"/>
<path d="M136.96 340.83L129.31 340.83"
fill="none" stroke="gray" stroke-width="0.5"/>
<path d="M121.67 340.83L129.31 340.83"
fill="none" stroke="gray" stroke-width="0.5"/>
<path d="M355.77 284.69L355.77 276.83Z"
fill="none" stroke="gray" stroke-width="0.5"/>
<path d="M352.58 250.96L352.58 264.66Z"
fill="none" stroke="gray" stroke-width="0.5"/>
<path d="M370.49 284.48L370.49 276.83Z"
fill="none" stroke="gray" stroke-width="0.5"/>
<path d="M366.81 284.48L366.81 276.83Z"
fill="none" stroke="gray" stroke-width="0.5"/>
<path d="M363.13 284.48L363.13 276.83Z"
fill="none" stroke="gray" stroke-width="0.5"/>
<path d="M390.88 299.56L390.88 307.2Z"
fill="none" stroke="gray" stroke-width="0.5"/>
<path d="M394.56 299.56L394.56 307.2Z"
fill="none" stroke="gray" stroke-width="0.5"/>
<path d="M457.14 307.2L457.14 298.14Z"
fill="none" stroke="gray" stroke-width="0.5"/>
<path d="M387.2 307.2L387.2 302.03Z"
fill="none" stroke="gray" stroke-width="0.5"/>
<path d="M386.92 307.49L386.92 302.03Z"
fill="none" stroke="gray" stroke-width="0.5"/>
<path d="M150.12 116.92L159.82 116.92"
fill="none" stroke="gray" stroke-width="0.5"/>
<path d="M354.53 307.75L325.63 336.65"
fill="none" stroke="gray" stroke-width="0.5"/>
<path d="M555.11 116.99L572.45 116.99"
fill="none" stroke="gray" stroke-width="0.5"/>
<path d="M555.11 116.92L572.45 116.92"
fill="none" stroke="gray" stroke-width="0.5"/>
<path d="M557.66 116.99L557.66 118.55Z"
fill="none" stroke="gray" stroke-width="0.5"/>
<path d="M557.23 116.99L557.23 118.55Z"
fill="none" stroke="gray" stroke-width="0.5"/>
<path d="M556.81 116.99L556.81 118.55Z"
fill="none" stroke="gray" stroke-width="0.5"/>
<path d="M556.38 116.99L556.38 118.55Z"
fill="none" stroke="gray" stroke-width="0.5"/>
<path d="M555.96 116.99L555.96 118.55Z"
fill="none" stroke="gray" stroke-width="0.5"/>
<path d="M555.53 116.99L555.53 118.55Z"
fill="none" stroke="gray" stroke-width="0.5"/>
<path d="M555.11 116.92L555.11 118.55Z"
fill="none" stroke="gray" stroke-width="0.5"/>
<path d="M569.9 116.99L569.9 118.55Z"
fill="none" stroke="gray" stroke-width="0.5"/>
<path d="M570.33 116.99L570.33 118.55Z"
fill="none" stroke="gray" stroke-width="0.5"/>
<path d="M570.75 116.99L570.75 118.55Z"
fill="none" stroke="gray" stroke-width="0.5"/>
<path d="M571.18 116.99L571.18 118.55Z"
fill="none" stroke="gray" stroke-width="0.5"/>
<path d="M571.6 116.99L571.6 118.55Z"
fill="none" stroke="gray" stroke-width="0.5"/>
<path d="M572.03 116.99L572.03 118.55Z"
fill="none" stroke="gray" stroke-width="0.5"/>
<path d="M572.45 116.92L572.45 118.55Z"
fill="none" stroke="gray" stroke-width="0.5"/>
<path d="M265.79 116.92L275.99 116.92"
fill="none" stroke="gray" stroke-width="0.5"/>
<path d="M265.79 116.99L275.92 116.99"
fill="none" stroke="gray" stroke-width="0.5"/>
<path d="M265.79 116.85L276.06 116.85"
fill="none" stroke="gray" stroke-width="0.5"/>
<path d="M275.92 118.62L275.92 116.99Z"
fill="none" stroke="gray" stroke-width="0.5"/>
<path d="M275.99 118.62L275.99 116.92Z"
fill="none" stroke="gray" stroke-width="0.5"/>
<path d="M276.06 118.62L276.06 116.85Z"
fill="none" stroke="gray" stroke-width="0.5"/>
<path d="M443.12 284.69L443.12 277.05Z"
fill="none" stroke="gray" stroke-width="0.5"/>
<path d="M446.8 284.69L446.8 277.05Z"
fill="none" stroke="gray" stroke-width="0.5"/>
<path d="M450.48 284.69L450.48 277.05Z"
fill="none" stroke="gray" stroke-width="0.5"/>
<path d="M454.16 284.69L454.16 277.05Z"
fill="none" stroke="gray" stroke-width="0.5"/>
<path d="M457.85 284.69L457.85 277.05Z"
fill="none" stroke="gray" stroke-width="0.5"/>
<path d="M461.53 284.69L461.53 277.05Z"
fill="none" stroke="gray" stroke-width="0.5"/>
<path d="M465.21 284.69L465.21 277.05Z"
fill="none" stroke="gray" stroke-width="0.5"/>
<path d="M468.89 284.69L468.89 277.05Z"
fill="none" stroke="gray" stroke-width="0.5"/>
<path d="M472.57 284.69L472.57 277.05Z"
fill="none" stroke="gray" stroke-width="0.5"/>
<path d="M476.25 284.69L476.25 277.05Z"
fill="none" stroke="gray" stroke-width="0.5"/>
<path d="M479.93 284.69L479.93 277.05Z"
fill="none" stroke="gray" stroke-width="0.5"/>
<path d="M483.61 284.69L483.61 277.05Z"
fill="none" stroke="gray" stroke-width="0.5"/>
<path d="M487.29 284.69L487.29 277.05Z"
fill="none" stroke="gray" stroke-width="0.5"/>
<path d="M490.98 284.69L490.98 277.05Z"
fill="none" stroke="gray" stroke-width="0.5"/>
<path d="M494.66 284.69L494.66 277.05Z"
fill="none" stroke="gray" stroke-width="0.5"/>
<path d="M498.34 284.69L498.34 277.05Z"
fill="none" stroke="gray" stroke-width="0.5"/>
<path d="M502.02 284.69L502.02 277.05Z"
fill="none" stroke="gray" stroke-width="0.5"/>
<path d="M505.7 284.69L505.7 277.05Z"
fill="none" stroke="gray" stroke-width="0.5"/>
<path d="M509.38 284.69L509.38 277.05Z"
fill="none" stroke="gray" stroke-width="0.5"/>
<path d="M513.06 284.69L513.06 277.05Z"
fill="none" stroke="gray" stroke-width="0.5"/>
<path d="M516.74 284.69L516.74 277.05Z"
fill="none" stroke="gray" stroke-width="0.5"/>
<path d="M520.42 284.69L520.42 277.05Z"
fill="none" stroke="gray" stroke-width="0.5"/>
<path d="M524.1 284.69L524.1 277.05Z"
fill="none" stroke="gray" stroke-width="0.5"/>
<path d="M525.59 276.76L525.59 276.76Z"
fill="none" stroke="gray" stroke-width="0.5"/>
<path d="M525.59 277.05L439.44 277.05"
fill="none" stroke="gray" stroke-width="0.5"/>
<path d="M525.59 285.47L542.03 285.47"
fill="none" stroke="gray" stroke-width="0.5"/>
<path d="M525.59 285.47L525.59 277.05Z"
fill="none" stroke="gray" stroke-width="0.5"/>
<path d="M327.62 118.55L327.62 116.99Z"
fill="none" stroke="gray" stroke-width="0.5"/>
<path d="M327.69 118.55L327.69 116.92Z"
fill="none" stroke="gray" stroke-width="0.5"/>
<path d="M327.76 118.55L327.76 116.85Z"
fill="none" stroke="gray" stroke-width="0.5"/>
<path d="M300.76 116.92L308.05 116.92"
fill="none" stroke="gray" stroke-width="0.5"/>
<path d="M300.76 116.99L307.98 116.99"
fill="none" stroke="gray" stroke-width="0.5"/>
<path d="M303.31 116.99L303.31 118.55Z"
fill="none" stroke="gray" stroke-width="0.5"/>
<path d="M302.89 116.99L302.89 118.55Z"
fill="none" stroke="gray" stroke-width="0.5"/>
<path d="M302.46 116.99L302.46 118.55Z"
fill="none" stroke="gray" stroke-width="0.5"/>
<path d="M302.04 116.99L302.04 118.55Z"
fill="none" stroke="gray" stroke-width="0.5"/>
<path d="M301.61 116.99L301.61 118.55Z"
fill="none" stroke="gray" stroke-width="0.5"/>
<path d="M301.19 116.99L301.19 118.55Z"
fill="none" stroke="gray" stroke-width="0.5"/>
<path d="M300.76 116.85L300.76 118.55Z"
fill="none" stroke="gray" stroke-width="0.5"/>
<path d="M300.76 116.85L308.12 116.85"
fill="none" stroke="gray" stroke-width="0.5"/>
<path d="M320.3 116.92L327.69 116.92"
fill="none" stroke="gray" stroke-width="0.5"/>
<path d="M320.3 116.99L327.62 116.99"
fill="none" stroke="gray" stroke-width="0.5"/>
<path d="M322.85 116.99L322.85 118.62Z"
fill="none" stroke="gray" stroke-width="0.5"/>
<path d="M322.42 116.99L322.42 118.62Z"
fill="none" stroke="gray" stroke-width="0.5"/>
<path d="M322 116.99L322 118.62Z"
fill="none" stroke="gray" stroke-width="0.5"/>
<path d="M321.57 116.99L321.57 118.62Z"
fill="none" stroke="gray" stroke-width="0.5"/>
<path d="M321.15 116.99L321.15 118.62Z"
fill="none" stroke="gray" stroke-width="0.5"/>
<path d="M320.73 116.99L320.73 118.62Z"
fill="none" stroke="gray" stroke-width="0.5"/>
<path d="M320.3 116.85L320.3 118.62Z"
fill="none" stroke="gray" stroke-width="0.5"/>
<path d="M320.3 116.85L327.76 116.85"
fill="none" stroke="gray" stroke-width="0.5"/>
<path d="M224.24 118.55L224.24 116.99Z"
fill="none" stroke="gray" stroke-width="0.5"/>
<path d="M224.31 118.55L224.31 116.92Z"
fill="none" stroke="gray" stroke-width="0.5"/>
<path d="M224.38 118.55L224.38 116.85Z"
fill="none" stroke="gray" stroke-width="0.5"/>
<path d="M215.18 116.92L224.31 116.92"
fill="none" stroke="gray" stroke-width="0.5"/>
<path d="M215.18 116.99L224.24 116.99"
fill="none" stroke="gray" stroke-width="0.5"/>
<path d="M215.18 116.85L224.38 116.85"
fill="none" stroke="gray" stroke-width="0.5"/>
<path d="M152.67 116.99L152.67 118.55Z"
fill="none" stroke="gray" stroke-width="0.5"/>
<path d="M152.25 116.99L152.25 118.55Z"
fill="none" stroke="gray" stroke-width="0.5"/>
<path d="M151.82 116.99L151.82 118.55Z"
fill="none" stroke="gray" stroke-width="0.5"/>
<path d="M151.4 116.99L151.4 118.55Z"
fill="none" stroke="gray" stroke-width="0.5"/>
<path d="M150.97 116.99L150.97 118.55Z"
fill="none" stroke="gray" stroke-width="0.5"/>
<path d="M150.55 116.99L150.55 118.55Z"
fill="none" stroke="gray" stroke-width="0.5"/>
<path d="M150.12 116.85L150.12 118.55Z"
fill="none" stroke="gray" stroke-width="0.5"/>
<path d="M150.12 116.99L159.75 116.99"
fill="none" stroke="gray" stroke-width="0.5"/>
<path d="M150.12 116.85L159.89 116.85"
fill="none" stroke="gray" stroke-width="0.5"/>
<path d="M145.81 124.77L145.81 132.12Z"
fill="none" stroke="gray" stroke-width="0.5"/>
<path d="M145.88 124.77L145.88 132.05Z"
fill="none" stroke="gray" stroke-width="0.5"/>
<path d="M145.73 124.83L145.73 132.19Z"
fill="none" stroke="gray" stroke-width="0.5"/>
<path d="M159.75 118.62L159.75 116.99Z"
fill="none" stroke="gray" stroke-width="0.5"/>
<path d="M159.82 118.62L159.82 116.92Z"
fill="none" stroke="gray" stroke-width="0.5"/>
<path d="M159.89 118.62L159.89 116.85Z"
fill="none" stroke="gray" stroke-width="0.5"/>
<path d="M268.34 116.99L268.34 118.62Z"
fill="none" stroke="gray" stroke-width="0.5"/>
<path d="M267.92 116.99L267.92 118.62Z"
fill="none" stroke="gray" stroke-width="0.5"/>
<path d="M267.49 116.99L267.49 118.62Z"
fill="none" stroke="gray" stroke-width="0.5"/>
<path d="M267.07 116.99L267.07 118.62Z"
fill="none" stroke="gray" stroke-width="0.5"/>
<path d="M266.64 116.99L266.64 118.62Z"
fill="none" stroke="gray" stroke-width="0.5"/>
<path d="M266.22 116.99L266.22 118.62Z"
fill="none" stroke="gray" stroke-width="0.5"/>
<path d="M265.79 116.85L265.79 118.62Z"
fill="none" stroke="gray" stroke-width="0.5"/>
<path d="M145.73 127.38L147.5 127.38"
fill="none" stroke="gray" stroke-width="0.5"/>
<path d="M145.73 126.95L147.5 126.95"
fill="none" stroke="gray" stroke-width="0.5"/>
<path d="M145.73 126.53L147.5 126.53"
fill="none" stroke="gray" stroke-width="0.5"/>
<path d="M145.73 126.1L147.5 126.1"
fill="none" stroke="gray" stroke-width="0.5"/>
<path d="M145.73 125.68L147.5 125.68"
fill="none" stroke="gray" stroke-width="0.5"/>
<path d="M145.73 125.25L147.5 125.25"
fill="none" stroke="gray" stroke-width="0.5"/>
<path d="M145.73 124.83L147.5 124.83"
fill="none" stroke="gray" stroke-width="0.5"/>
<path d="M145.88 127.38L147.5 127.38"
fill="none" stroke="gray" stroke-width="0.5"/>
<path d="M145.88 126.95L147.5 126.95"
fill="none" stroke="gray" stroke-width="0.5"/>
<path d="M145.88 126.53L147.5 126.53"
fill="none" stroke="gray" stroke-width="0.5"/>
<path d="M145.88 125.68L147.5 125.68"
fill="none" stroke="gray" stroke-width="0.5"/>
<path d="M145.88 125.25L147.5 125.25"
fill="none" stroke="gray" stroke-width="0.5"/>
<path d="M145.88 124.83L147.5 124.83"
fill="none" stroke="gray" stroke-width="0.5"/>
<path d="M145.88 126.1L147.5 126.1"
fill="none" stroke="gray" stroke-width="0.5"/>
<path d="M147.5 132.05L145.88 132.05"
fill="none" stroke="gray" stroke-width="0.5"/>
<path d="M147.5 132.12L145.81 132.12"
fill="none" stroke="gray" stroke-width="0.5"/>
<path d="M147.5 132.19L145.73 132.19"
fill="none" stroke="gray" stroke-width="0.5"/>
<path d="M217.73 116.99L217.73 118.62Z"
fill="none" stroke="gray" stroke-width="0.5"/>
<path d="M217.3 116.99L217.3 118.62Z"
fill="none" stroke="gray" stroke-width="0.5"/>
<path d="M216.88 116.99L216.88 118.62Z"
fill="none" stroke="gray" stroke-width="0.5"/>
<path d="M216.45 116.99L216.45 118.62Z"
fill="none" stroke="gray" stroke-width="0.5"/>
<path d="M216.03 116.99L216.03 118.62Z"
fill="none" stroke="gray" stroke-width="0.5"/>
<path d="M215.6 116.99L215.6 118.62Z"
fill="none" stroke="gray" stroke-width="0.5"/>
<path d="M215.18 116.85L215.18 118.62Z"
fill="none" stroke="gray" stroke-width="0.5"/>
<path d="M215.18 116.85L215.18 118.62Z"
fill="none" stroke="gray" stroke-width="0.5"/>
<path d="M215.6 116.99L215.6 118.62Z"
fill="none" stroke="gray" stroke-width="0.5"/>
<path d="M216.03 116.99L216.03 118.62Z"
fill="none" stroke="gray" stroke-width="0.5"/>
<path d="M216.45 116.99L216.45 118.62Z"
fill="none" stroke="gray" stroke-width="0.5"/>
<path d="M216.88 116.99L216.88 118.62Z"
fill="none" stroke="gray" stroke-width="0.5"/>
<path d="M217.3 116.99L217.3 118.62Z"
fill="none" stroke="gray" stroke-width="0.5"/>
<path d="M217.73 116.99L217.73 118.62Z"
fill="none" stroke="gray" stroke-width="0.5"/>
<path d="M308.05 118.62L308.05 116.92Z"
fill="none" stroke="gray" stroke-width="0.5"/>
<path d="M308.12 118.62L308.12 116.85Z"
fill="none" stroke="gray" stroke-width="0.5"/>
<path d="M307.98 118.62L307.98 116.99Z"
fill="none" stroke="gray" stroke-width="0.5"/>
<path d="M418.98 117.06L418.98 118.62Z"
fill="none" stroke="gray" stroke-width="0.5"/>
<path d="M418.55 117.06L418.55 118.62Z"
fill="none" stroke="gray" stroke-width="0.5"/>
<path d="M418.13 117.06L418.13 118.62Z"
fill="none" stroke="gray" stroke-width="0.5"/>
<path d="M417.7 117.06L417.7 118.62Z"
fill="none" stroke="gray" stroke-width="0.5"/>
<path d="M417.28 117.06L417.28 118.62Z"
fill="none" stroke="gray" stroke-width="0.5"/>
<path d="M416.85 117.06L416.85 118.62Z"
fill="none" stroke="gray" stroke-width="0.5"/>
<path d="M416.43 116.99L416.43 118.62Z"
fill="none" stroke="gray" stroke-width="0.5"/>
<path d="M416.43 117.06L445.67 117.06"
fill="none" stroke="gray" stroke-width="0.5"/>
<path d="M416.43 116.99L445.67 116.99"
fill="none" stroke="gray" stroke-width="0.5"/>
<path d="M443.12 117.06L443.12 118.62Z"
fill="none" stroke="gray" stroke-width="0.5"/>
<path d="M443.55 117.06L443.55 118.62Z"
fill="none" stroke="gray" stroke-width="0.5"/>
<path d="M443.97 117.06L443.97 118.62Z"
fill="none" stroke="gray" stroke-width="0.5"/>
<path d="M444.39 117.06L444.39 118.62Z"
fill="none" stroke="gray" stroke-width="0.5"/>
<path d="M444.82 117.06L444.82 118.62Z"
fill="none" stroke="gray" stroke-width="0.5"/>
<path d="M445.24 117.06L445.24 118.62Z"
fill="none" stroke="gray" stroke-width="0.5"/>
<path d="M445.67 116.99L445.67 118.62Z"
fill="none" stroke="gray" stroke-width="0.5"/>
<path d="M355.77 276.83L421.67 276.83"
fill="none" stroke="gray" stroke-width="0.5"/>
<path d="M 281.44 317.4 A 6.017 6.017 0 0 0 284.02 316.82"
fill="none" stroke="gray" stroke-width="0.5"/>
<path d="M 281.41 317.11 A 5.734 5.734 0 0 0 283.96 316.53"
fill="none" stroke="gray" stroke-width="0.5"/>
<path d="M 62.41 220.93 A 2.548 2.548 0 0 0 63.9 223.25"
fill="none" stroke="gray" stroke-width="0.5"/>
<path d="M 62.13 220.93 A 2.832 2.832 0 0 0 63.9 223.55"
fill="none" stroke="gray" stroke-width="0.5"/>
<path d="M 62.41 311.38 A 5.734 5.734 0 0 0 68.15 317.11"
fill="none" stroke="gray" stroke-width="0.5"/>
<path d="M 459.61 295.95 A 2.194 2.194 0 0 0 457.42 298.14"
fill="none" stroke="gray" stroke-width="0.5"/>
<path d="M 459.61 295.66 A 2.478 2.478 0 0 0 457.14 298.14"
fill="none" stroke="gray" stroke-width="0.5"/>
<path d="M 62.13 311.38 A 6.017 6.017 0 0 0 68.15 317.4"
fill="none" stroke="gray" stroke-width="0.5"/>
<path d="M 85.52 337.95 A 2.478 2.478 0 0 0 89.1 335.73"
fill="none" stroke="gray" stroke-width="0.5"/>
<path d="M 85.64 337.69 A 2.194 2.194 0 0 0 88.82 335.73"
fill="none" stroke="gray" stroke-width="0.5"/>
<path d="M 52.22 311.38 A 15.928 15.928 0 0 0 63.81 326.7"
fill="none" stroke="gray" stroke-width="0.5"/>
<path d="M 64.82 328.3 A 1.416 1.416 0 0 0 63.81 326.7"
fill="none" stroke="gray" stroke-width="0.5"/>
<path d="M 64.54 328.26 A 1.133 1.133 0 0 0 63.73 326.98"
fill="none" stroke="gray" stroke-width="0.5"/>
<path d="M 51.94 311.38 A 16.211 16.211 0 0 0 63.73 326.98"
fill="none" stroke="gray" stroke-width="0.5"/>
<path d="M 64.82 328.3 A 13.096 13.096 0 0 0 71.87 342.21"
fill="none" stroke="gray" stroke-width="0.5"/>
<path d="M 64.54 328.26 A 13.379 13.379 0 0 0 69.43 340.98"
fill="none" stroke="gray" stroke-width="0.5"/>
<path d="M 77.73 327.31 A 3.186 3.186 0 0 0 76.31 333.34"
fill="none" stroke="gray" stroke-width="0.5"/>
<path d="M 77.73 327.59 A 2.902 2.902 0 0 0 76.43 333.09"
fill="none" stroke="gray" stroke-width="0.5"/>
<path d="M 219.85 327.31 A 2.478 2.478 0 0 0 217.37 329.78"
fill="none" stroke="gray" stroke-width="0.5"/>
<path d="M 219.85 327.59 A 2.194 2.194 0 0 0 217.67 329.5"
fill="none" stroke="gray" stroke-width="0.5"/>
<path d="M 232.66 329.78 A 2.478 2.478 0 0 0 230.19 327.31"
fill="none" stroke="gray" stroke-width="0.5"/>
<path d="M 232.36 329.5 A 2.194 2.194 0 0 0 230.19 327.59"
fill="none" stroke="gray" stroke-width="0.5"/>
<path d="M 256.59 329.78 A 2.478 2.478 0 0 0 254.11 327.31"
fill="none" stroke="gray" stroke-width="0.5"/>
<path d="M 256.29 329.5 A 2.194 2.194 0 0 0 254.11 327.59"
fill="none" stroke="gray" stroke-width="0.5"/>
<path d="M 243.78 327.31 A 2.478 2.478 0 0 0 241.3 329.78"
fill="none" stroke="gray" stroke-width="0.5"/>
<path d="M 243.78 327.59 A 2.194 2.194 0 0 0 241.6 329.5"
fill="none" stroke="gray" stroke-width="0.5"/>
<path d="M 280.52 329.78 A 2.478 2.478 0 0 0 278.04 327.31"
fill="none" stroke="gray" stroke-width="0.5"/>
<path d="M 280.22 329.5 A 2.194 2.194 0 0 0 278.04 327.59"
fill="none" stroke="gray" stroke-width="0.5"/>
<path d="M 267.7 327.31 A 2.478 2.478 0 0 0 265.23 329.78"
fill="none" stroke="gray" stroke-width="0.5"/>
<path d="M 267.7 327.59 A 2.194 2.194 0 0 0 265.53 329.5"
fill="none" stroke="gray" stroke-width="0.5"/>
<path d="M 195.92 327.31 A 2.478 2.478 0 0 0 193.45 329.78"
fill="none" stroke="gray" stroke-width="0.5"/>
<path d="M 195.92 327.59 A 2.194 2.194 0 0 0 193.75 329.5"
fill="none" stroke="gray" stroke-width="0.5"/>
<path d="M 208.74 329.78 A 2.478 2.478 0 0 0 206.26 327.31"
fill="none" stroke="gray" stroke-width="0.5"/>
<path d="M 208.44 329.5 A 2.194 2.194 0 0 0 206.26 327.59"
fill="none" stroke="gray" stroke-width="0.5"/>
<path d="M 172 327.31 A 2.478 2.478 0 0 0 169.52 329.78"
fill="none" stroke="gray" stroke-width="0.5"/>
<path d="M 172 327.59 A 2.194 2.194 0 0 0 169.82 329.5"
fill="none" stroke="gray" stroke-width="0.5"/>
<path d="M 184.81 329.78 A 2.478 2.478 0 0 0 182.33 327.31"
fill="none" stroke="gray" stroke-width="0.5"/>
<path d="M 184.51 329.5 A 2.194 2.194 0 0 0 182.33 327.59"
fill="none" stroke="gray" stroke-width="0.5"/>
<path d="M 148.07 327.31 A 2.478 2.478 0 0 0 145.59 329.78"
fill="none" stroke="gray" stroke-width="0.5"/>
<path d="M 148.07 327.59 A 2.194 2.194 0 0 0 145.89 329.5"
fill="none" stroke="gray" stroke-width="0.5"/>
<path d="M 160.88 329.78 A 2.478 2.478 0 0 0 158.41 327.31"
fill="none" stroke="gray" stroke-width="0.5"/>
<path d="M 160.58 329.5 A 2.194 2.194 0 0 0 158.41 327.59"
fill="none" stroke="gray" stroke-width="0.5"/>
<path d="M 124.14 327.31 A 2.478 2.478 0 0 0 121.67 329.78"
fill="none" stroke="gray" stroke-width="0.5"/>
<path d="M 124.14 327.59 A 2.194 2.194 0 0 0 121.97 329.5"
fill="none" stroke="gray" stroke-width="0.5"/>
<path d="M 136.96 329.78 A 2.478 2.478 0 0 0 134.48 327.31"
fill="none" stroke="gray" stroke-width="0.5"/>
<path d="M 136.65 329.5 A 2.194 2.194 0 0 0 134.48 327.59"
fill="none" stroke="gray" stroke-width="0.5"/>
<path d="M 100.22 327.31 A 2.478 2.478 0 0 0 97.74 329.78"
fill="none" stroke="gray" stroke-width="0.5"/>
<path d="M 100.22 327.59 A 2.194 2.194 0 0 0 98.04 329.5"
fill="none" stroke="gray" stroke-width="0.5"/>
<path d="M 113.03 329.78 A 2.478 2.478 0 0 0 110.55 327.31"
fill="none" stroke="gray" stroke-width="0.5"/>
<path d="M 112.73 329.5 A 2.194 2.194 0 0 0 110.55 327.59"
fill="none" stroke="gray" stroke-width="0.5"/>
<path d="M 89.1 329.78 A 2.478 2.478 0 0 0 86.62 327.31"
fill="none" stroke="gray" stroke-width="0.5"/>
<path d="M 88.8 329.5 A 2.194 2.194 0 0 0 86.62 327.59"
fill="none" stroke="gray" stroke-width="0.5"/>
<path d="M 63.9 235.42 A 2.548 2.548 0 0 0 62.41 237.74"
fill="none" stroke="gray" stroke-width="0.5"/>
<path d="M 63.9 235.11 A 2.832 2.832 0 0 0 62.13 237.74"
fill="none" stroke="gray" stroke-width="0.5"/>
<path d="M188.9 104.46L186.63 104.46"
fill="none" stroke="gray" stroke-width="0.5"/>
<path d="M186.63 99.79L188.9 99.79"
fill="none" stroke="gray" stroke-width="0.5"/>
<path d="M187.84 104.46L188.9 104.04"
fill="none" stroke="gray" stroke-width="0.5"/>
<path d="M187.84 104.46L186.78 104.04"
fill="none" stroke="gray" stroke-width="0.5"/>
<path d="M186.78 101.06L188.9 101.06"
fill="none" stroke="gray" stroke-width="0.5"/>
<path d="M186.78 101.49L188.9 101.49"
fill="none" stroke="gray" stroke-width="0.5"/>
<path d="M186.78 101.91L188.9 101.91"
fill="none" stroke="gray" stroke-width="0.5"/>
<path d="M186.78 102.34L188.9 102.34"
fill="none" stroke="gray" stroke-width="0.5"/>
<path d="M186.78 102.76L188.9 102.76"
fill="none" stroke="gray" stroke-width="0.5"/>
<path d="M186.78 103.19L188.9 103.19"
fill="none" stroke="gray" stroke-width="0.5"/>
<path d="M186.78 103.61L188.9 103.61"
fill="none" stroke="gray" stroke-width="0.5"/>
<path d="M186.78 104.04L188.9 104.04"
fill="none" stroke="gray" stroke-width="0.5"/>
<path d="M186.78 100.64L188.9 100.64"
fill="none" stroke="gray" stroke-width="0.5"/>
<path d="M186.78 100.21L188.9 100.21"
fill="none" stroke="gray" stroke-width="0.5"/>
<path d="M187.84 98.01L187.84 104.46Z"
fill="none" stroke="gray" stroke-width="0.5"/>
<path d="M186.7 99.31L188.97 99.31"
fill="none" stroke="gray" stroke-width="0.5"/>
<path d="M186.73 98.89L188.99 98.89"
fill="none" stroke="gray" stroke-width="0.5"/>
</svg>
