<?xml version="1.0" encoding="UTF-8"?>
<svg xmlns="http://www.w3.org/2000/svg" width="100%" height="100%" viewBox="0.0 0.0 800.000 600.000" preserveAspectRatio="xMidYMin" style="transwormOrigin:center" version="1.1">
<!-- <svg xmlns="http://www.w3.org/2000/svg" width="800.000" height="600.000" viewBox="0.0 0.0 800.000 600.000" version="1.1"> -->
<path d="M324.19 119.14L324.55 119.14"
fill="none" stroke="RGB(159,127,255)" stroke-width="0.5"/>
<path d="M297.62 305.02L297.82 305.4"
fill="none" stroke="RGB(159,127,255)" stroke-width="0.5"/>
<path d="M306.52 295.59L304.66 293.01"
fill="none" stroke="RGB(159,127,255)" stroke-width="0.5"/>
<path d="M304.66 293.01L304.32 293.26"
fill="none" stroke="RGB(159,127,255)" stroke-width="0.5"/>
<path d="M300.96 305.6L301.16 305.97"
fill="none" stroke="RGB(159,127,255)" stroke-width="0.5"/>
<path d="M300.18 304.16L300.96 305.6"
fill="none" stroke="RGB(159,127,255)" stroke-width="0.5"/>
<path d="M306.52 302.92L306.52 295.59Z"
fill="none" stroke="RGB(159,127,255)" stroke-width="0.5"/>
<path d="M437.32 240.94L437.32 240.66Z"
fill="none" stroke="RGB(159,127,255)" stroke-width="0.5"/>
<path d="M450.06 240.66L450.06 247.03Z"
fill="none" stroke="RGB(159,127,255)" stroke-width="0.5"/>
<path d="M437.32 240.66L450.06 240.66"
fill="none" stroke="RGB(159,127,255)" stroke-width="0.5"/>
<path d="M646.21 153.52L611.48 118.62"
fill="none" stroke="RGB(159,127,255)" stroke-width="0.5"/>
<path d="M649.1 156.32L648.74 156.68"
fill="none" stroke="RGB(159,127,255)" stroke-width="0.5"/>
<path d="M651.87 159L649.1 156.32"
fill="none" stroke="RGB(159,127,255)" stroke-width="0.5"/>
<path d="M575.29 235.21L583.74 226.86"
fill="none" stroke="RGB(159,127,255)" stroke-width="0.5"/>
<path d="M606.65 203.36L607.11 203.76"
fill="none" stroke="RGB(159,127,255)" stroke-width="0.5"/>
<path d="M583.74 226.86L607.11 203.76"
fill="none" stroke="RGB(159,127,255)" stroke-width="0.5"/>
<path d="M562.83 118.62L561.06 118.62"
fill="none" stroke="RGB(159,127,255)" stroke-width="0.5"/>
<path d="M561.06 118.62L561.06 119.18Z"
fill="none" stroke="RGB(159,127,255)" stroke-width="0.5"/>
<path d="M562.83 119.18L562.83 118.62Z"
fill="none" stroke="RGB(159,127,255)" stroke-width="0.5"/>
<path d="M438.17 119.61L438.17 118.55Z"
fill="none" stroke="RGB(159,127,255)" stroke-width="0.5"/>
<path d="M441.42 119.61L441.25 119.61"
fill="none" stroke="RGB(159,127,255)" stroke-width="0.5"/>
<path d="M438.28 119.61L438.17 119.61"
fill="none" stroke="RGB(159,127,255)" stroke-width="0.5"/>
<path d="M438.28 119.61L438.28 120.32Z"
fill="none" stroke="RGB(159,127,255)" stroke-width="0.5"/>
<path d="M441.25 119.61L441.25 120.32Z"
fill="none" stroke="RGB(159,127,255)" stroke-width="0.5"/>
<path d="M63.97 144.1L63.97 192.23Z"
fill="none" stroke="RGB(159,127,255)" stroke-width="0.5"/>
<path d="M63.97 208.38L63.97 311.8Z"
fill="none" stroke="RGB(159,127,255)" stroke-width="0.5"/>
<path d="M328.16 286.73L327.09 285.6"
fill="none" stroke="RGB(159,127,255)" stroke-width="0.5"/>
<path d="M324.55 120.18L324.55 119.11Z"
fill="none" stroke="RGB(159,127,255)" stroke-width="0.5"/>
<path d="M324.55 119.11L324.19 119.11"
fill="none" stroke="RGB(159,127,255)" stroke-width="0.5"/>
<path d="M425.49 119.82L425.49 118.55Z"
fill="none" stroke="RGB(159,127,255)" stroke-width="0.5"/>
<path d="M285.12 308.16L293.59 308.16"
fill="none" stroke="RGB(159,127,255)" stroke-width="0.5"/>
<path d="M423.65 118.55L423.65 119.82Z"
fill="none" stroke="RGB(159,127,255)" stroke-width="0.5"/>
<path d="M428.47 118.55L428.47 119.82Z"
fill="none" stroke="RGB(159,127,255)" stroke-width="0.5"/>
<path d="M463.22 239.53L451.05 239.53"
fill="none" stroke="RGB(159,127,255)" stroke-width="0.5"/>
<path d="M425.49 118.55L423.65 118.55"
fill="none" stroke="RGB(159,127,255)" stroke-width="0.5"/>
<path d="M269.62 118.62L224.24 118.62"
fill="none" stroke="RGB(159,127,255)" stroke-width="0.5"/>
<path d="M224.24 118.62L224.24 119.61Z"
fill="none" stroke="RGB(159,127,255)" stroke-width="0.5"/>
<path d="M79.4 311.8L81.46 311.8"
fill="none" stroke="RGB(159,127,255)" stroke-width="0.5"/>
<path d="M81.46 311.8L81.46 311.24Z"
fill="none" stroke="RGB(159,127,255)" stroke-width="0.5"/>
<path d="M79.4 311.24L79.4 311.8Z"
fill="none" stroke="RGB(159,127,255)" stroke-width="0.5"/>
<path d="M83.72 311.8L84.5 311.8"
fill="none" stroke="RGB(159,127,255)" stroke-width="0.5"/>
<path d="M84.5 311.8L84.5 311.24Z"
fill="none" stroke="RGB(159,127,255)" stroke-width="0.5"/>
<path d="M83.72 311.24L83.72 311.8Z"
fill="none" stroke="RGB(159,127,255)" stroke-width="0.5"/>
<path d="M86.77 311.8L141.93 311.8"
fill="none" stroke="RGB(159,127,255)" stroke-width="0.5"/>
<path d="M144.18 311.8L145.17 311.8"
fill="none" stroke="RGB(159,127,255)" stroke-width="0.5"/>
<path d="M147.43 311.8L185.02 311.8"
fill="none" stroke="RGB(159,127,255)" stroke-width="0.5"/>
<path d="M218.93 119.61L218.72 119.61"
fill="none" stroke="RGB(159,127,255)" stroke-width="0.5"/>
<path d="M218.93 120.32L218.93 119.61Z"
fill="none" stroke="RGB(159,127,255)" stroke-width="0.5"/>
<path d="M543.93 248.02L563.93 248.02"
fill="none" stroke="RGB(159,127,255)" stroke-width="0.5"/>
<path d="M567.14 235.21L575.29 235.21"
fill="none" stroke="RGB(159,127,255)" stroke-width="0.5"/>
<path d="M566.58 235.53L567.14 235.53"
fill="none" stroke="RGB(159,127,255)" stroke-width="0.5"/>
<path d="M566.51 118.62L565.09 118.62"
fill="none" stroke="RGB(159,127,255)" stroke-width="0.5"/>
<path d="M565.09 118.62L565.09 119.18Z"
fill="none" stroke="RGB(159,127,255)" stroke-width="0.5"/>
<path d="M566.51 119.18L566.51 118.62Z"
fill="none" stroke="RGB(159,127,255)" stroke-width="0.5"/>
<path d="M528.42 277.26L528.42 284.71Z"
fill="none" stroke="RGB(159,127,255)" stroke-width="0.5"/>
<path d="M536.77 277.26L528.42 277.26"
fill="none" stroke="RGB(159,127,255)" stroke-width="0.5"/>
<path d="M528.42 284.71L536.77 284.71"
fill="none" stroke="RGB(159,127,255)" stroke-width="0.5"/>
<path d="M424.57 248.02L451.05 248.02"
fill="none" stroke="RGB(159,127,255)" stroke-width="0.5"/>
<path d="M347.7 260.54L347.7 258.99Z"
fill="none" stroke="RGB(159,127,255)" stroke-width="0.5"/>
<path d="M347.7 256.44L347.7 248.02Z"
fill="none" stroke="RGB(159,127,255)" stroke-width="0.5"/>
<path d="M347.7 256.44L347.13 256.44"
fill="none" stroke="RGB(159,127,255)" stroke-width="0.5"/>
<path d="M347.7 258.99L347.13 258.99"
fill="none" stroke="RGB(159,127,255)" stroke-width="0.5"/>
<path d="M327.62 120.18L327.36 120.18"
fill="none" stroke="RGB(159,127,255)" stroke-width="0.5"/>
<path d="M324.81 120.18L324.55 120.18"
fill="none" stroke="RGB(159,127,255)" stroke-width="0.5"/>
<path d="M324.81 120.18L324.81 120.89Z"
fill="none" stroke="RGB(159,127,255)" stroke-width="0.5"/>
<path d="M327.36 120.18L327.36 120.89Z"
fill="none" stroke="RGB(159,127,255)" stroke-width="0.5"/>
<path d="M438.17 118.55L428.47 118.55"
fill="none" stroke="RGB(159,127,255)" stroke-width="0.5"/>
<path d="M420.68 119.82L420.68 119.11Z"
fill="none" stroke="RGB(159,127,255)" stroke-width="0.5"/>
<path d="M420.68 119.11L419.97 119.11"
fill="none" stroke="RGB(159,127,255)" stroke-width="0.5"/>
<path d="M350.6 118.55L327.62 118.55"
fill="none" stroke="RGB(159,127,255)" stroke-width="0.5"/>
<path d="M567.14 248.02L567.14 237.79Z"
fill="none" stroke="RGB(159,127,255)" stroke-width="0.5"/>
<path d="M567.14 237.79L566.58 237.79"
fill="none" stroke="RGB(159,127,255)" stroke-width="0.5"/>
<path d="M558.79 118.62L441.42 118.62"
fill="none" stroke="RGB(159,127,255)" stroke-width="0.5"/>
<path d="M558.79 119.18L558.79 118.62Z"
fill="none" stroke="RGB(159,127,255)" stroke-width="0.5"/>
<path d="M221.76 119.61L221.2 119.61"
fill="none" stroke="RGB(159,127,255)" stroke-width="0.5"/>
<path d="M221.2 119.61L221.2 120.32Z"
fill="none" stroke="RGB(159,127,255)" stroke-width="0.5"/>
<path d="M221.76 120.32L221.76 119.61Z"
fill="none" stroke="RGB(159,127,255)" stroke-width="0.5"/>
<path d="M327.62 118.55L327.62 120.18Z"
fill="none" stroke="RGB(159,127,255)" stroke-width="0.5"/>
<path d="M366.31 122.09L366.17 122.01"
fill="none" stroke="RGB(159,127,255)" stroke-width="0.5"/>
<path d="M361.01 119.03L360.17 118.55"
fill="none" stroke="RGB(159,127,255)" stroke-width="0.5"/>
<path d="M360.73 119.52L361.01 119.03"
fill="none" stroke="RGB(159,127,255)" stroke-width="0.5"/>
<path d="M365.88 122.5L366.17 122.01"
fill="none" stroke="RGB(159,127,255)" stroke-width="0.5"/>
<path d="M358.62 118.55L356.62 122.02"
fill="none" stroke="RGB(159,127,255)" stroke-width="0.5"/>
<path d="M351.46 119.05L350.6 118.55"
fill="none" stroke="RGB(159,127,255)" stroke-width="0.5"/>
<path d="M351.18 119.54L351.46 119.05"
fill="none" stroke="RGB(159,127,255)" stroke-width="0.5"/>
<path d="M356.33 122.51L356.62 122.02"
fill="none" stroke="RGB(159,127,255)" stroke-width="0.5"/>
<path d="M360.17 118.55L358.62 118.55"
fill="none" stroke="RGB(159,127,255)" stroke-width="0.5"/>
<path d="M224.24 119.61L224.03 119.61"
fill="none" stroke="RGB(159,127,255)" stroke-width="0.5"/>
<path d="M224.03 119.61L224.03 120.32Z"
fill="none" stroke="RGB(159,127,255)" stroke-width="0.5"/>
<path d="M269.62 119.61L269.62 118.62Z"
fill="none" stroke="RGB(159,127,255)" stroke-width="0.5"/>
<path d="M173.77 105.66L184.39 105.66"
fill="none" stroke="RGB(159,127,255)" stroke-width="0.5"/>
<path d="M169.94 97.74L169.94 105.66Z"
fill="none" stroke="RGB(159,127,255)" stroke-width="0.5"/>
<path d="M170.68 104.38L170.68 105.66Z"
fill="none" stroke="RGB(159,127,255)" stroke-width="0.5"/>
<path d="M173.77 105.66L173.77 104.38Z"
fill="none" stroke="RGB(159,127,255)" stroke-width="0.5"/>
<path d="M170.68 105.66L169.94 105.66"
fill="none" stroke="RGB(159,127,255)" stroke-width="0.5"/>
<path d="M184.39 105.66L184.39 97.74Z"
fill="none" stroke="RGB(159,127,255)" stroke-width="0.5"/>
<path d="M184.39 97.74L169.94 97.74"
fill="none" stroke="RGB(159,127,255)" stroke-width="0.5"/>
<path d="M320.24 287.19L323.38 290.99"
fill="none" stroke="RGB(159,127,255)" stroke-width="0.5"/>
<path d="M147.5 129.24L148.57 129.24"
fill="none" stroke="RGB(159,127,255)" stroke-width="0.5"/>
<path d="M154.48 119.61L154.23 119.61"
fill="none" stroke="RGB(159,127,255)" stroke-width="0.5"/>
<path d="M153.8 120.32L154.48 120.32"
fill="none" stroke="RGB(159,127,255)" stroke-width="0.5"/>
<path d="M154.48 120.32L154.48 119.61Z"
fill="none" stroke="RGB(159,127,255)" stroke-width="0.5"/>
<path d="M157.31 119.61L156.74 119.61"
fill="none" stroke="RGB(159,127,255)" stroke-width="0.5"/>
<path d="M156.74 119.61L156.74 120.32Z"
fill="none" stroke="RGB(159,127,255)" stroke-width="0.5"/>
<path d="M157.31 120.32L157.31 119.61Z"
fill="none" stroke="RGB(159,127,255)" stroke-width="0.5"/>
<path d="M154.23 118.62L147.5 118.62"
fill="none" stroke="RGB(159,127,255)" stroke-width="0.5"/>
<path d="M148.64 131.5L147.5 131.5"
fill="none" stroke="RGB(159,127,255)" stroke-width="0.5"/>
<path d="M147.5 131.5L147.5 144.1Z"
fill="none" stroke="RGB(159,127,255)" stroke-width="0.5"/>
<path d="M147.5 144.1L63.97 144.1"
fill="none" stroke="RGB(159,127,255)" stroke-width="0.5"/>
<path d="M63.97 311.8L77.14 311.8"
fill="none" stroke="RGB(159,127,255)" stroke-width="0.5"/>
<path d="M77.14 311.8L77.14 311.24Z"
fill="none" stroke="RGB(159,127,255)" stroke-width="0.5"/>
<path d="M147.5 118.62L147.5 129.24Z"
fill="none" stroke="RGB(159,127,255)" stroke-width="0.5"/>
<path d="M154.23 119.61L154.23 118.62Z"
fill="none" stroke="RGB(159,127,255)" stroke-width="0.5"/>
<path d="M160.18 119.61L159.57 119.61"
fill="none" stroke="RGB(159,127,255)" stroke-width="0.5"/>
<path d="M159.57 119.61L159.57 120.32Z"
fill="none" stroke="RGB(159,127,255)" stroke-width="0.5"/>
<path d="M159.57 120.32L160.18 120.32"
fill="none" stroke="RGB(159,127,255)" stroke-width="0.5"/>
<path d="M159.75 118.62L159.75 119.61Z"
fill="none" stroke="RGB(159,127,255)" stroke-width="0.5"/>
<path d="M186.88 118.62L159.75 118.62"
fill="none" stroke="RGB(159,127,255)" stroke-width="0.5"/>
<path d="M186.88 119.19L186.88 118.62Z"
fill="none" stroke="RGB(159,127,255)" stroke-width="0.5"/>
<path d="M269.96 119.61L269.62 119.61"
fill="none" stroke="RGB(159,127,255)" stroke-width="0.5"/>
<path d="M269.96 120.32L269.96 119.61Z"
fill="none" stroke="RGB(159,127,255)" stroke-width="0.5"/>
<path d="M190.23 118.62L188.32 118.62"
fill="none" stroke="RGB(159,127,255)" stroke-width="0.5"/>
<path d="M188.32 118.62L188.32 119.18Z"
fill="none" stroke="RGB(159,127,255)" stroke-width="0.5"/>
<path d="M190.23 119.18L190.23 118.62Z"
fill="none" stroke="RGB(159,127,255)" stroke-width="0.5"/>
<path d="M275.92 118.62L275.92 119.61Z"
fill="none" stroke="RGB(159,127,255)" stroke-width="0.5"/>
<path d="M218.72 118.62L191.68 118.62"
fill="none" stroke="RGB(159,127,255)" stroke-width="0.5"/>
<path d="M191.68 118.62L191.68 119.18Z"
fill="none" stroke="RGB(159,127,255)" stroke-width="0.5"/>
<path d="M218.72 119.61L218.72 118.62Z"
fill="none" stroke="RGB(159,127,255)" stroke-width="0.5"/>
<path d="M273.3 119.61L272.22 119.61"
fill="none" stroke="RGB(159,127,255)" stroke-width="0.5"/>
<path d="M272.22 119.61L272.22 120.32Z"
fill="none" stroke="RGB(159,127,255)" stroke-width="0.5"/>
<path d="M273.3 120.32L273.3 119.61Z"
fill="none" stroke="RGB(159,127,255)" stroke-width="0.5"/>
<path d="M275.92 119.61L275.56 119.61"
fill="none" stroke="RGB(159,127,255)" stroke-width="0.5"/>
<path d="M275.56 119.61L275.56 120.32Z"
fill="none" stroke="RGB(159,127,255)" stroke-width="0.5"/>
<path d="M324.19 118.62L307.98 118.62"
fill="none" stroke="RGB(159,127,255)" stroke-width="0.5"/>
<path d="M324.19 119.18L324.19 118.62Z"
fill="none" stroke="RGB(159,127,255)" stroke-width="0.5"/>
<path d="M304.94 118.62L275.92 118.62"
fill="none" stroke="RGB(159,127,255)" stroke-width="0.5"/>
<path d="M347.7 248.02L373.18 248.02"
fill="none" stroke="RGB(159,127,255)" stroke-width="0.5"/>
<path d="M373.18 248.02L373.18 239.53Z"
fill="none" stroke="RGB(159,127,255)" stroke-width="0.5"/>
<path d="M583.93 119.82L584.21 119.33"
fill="none" stroke="RGB(159,127,255)" stroke-width="0.5"/>
<path d="M584.21 119.33L582.98 118.62"
fill="none" stroke="RGB(159,127,255)" stroke-width="0.5"/>
<path d="M582.98 118.62L568.77 118.62"
fill="none" stroke="RGB(159,127,255)" stroke-width="0.5"/>
<path d="M568.77 118.62L568.77 119.18Z"
fill="none" stroke="RGB(159,127,255)" stroke-width="0.5"/>
<path d="M599.02 121.73L597.8 121.03"
fill="none" stroke="RGB(159,127,255)" stroke-width="0.5"/>
<path d="M597.8 121.03L597.52 121.52"
fill="none" stroke="RGB(159,127,255)" stroke-width="0.5"/>
<path d="M594.57 119.82L594.86 119.33"
fill="none" stroke="RGB(159,127,255)" stroke-width="0.5"/>
<path d="M594.86 119.33L593.63 118.62"
fill="none" stroke="RGB(159,127,255)" stroke-width="0.5"/>
<path d="M611.48 118.62L600.82 118.62"
fill="none" stroke="RGB(159,127,255)" stroke-width="0.5"/>
<path d="M600.82 118.62L599.02 121.73"
fill="none" stroke="RGB(159,127,255)" stroke-width="0.5"/>
<path d="M593.63 118.62L590.14 118.62"
fill="none" stroke="RGB(159,127,255)" stroke-width="0.5"/>
<path d="M590.14 118.62L588.35 121.72"
fill="none" stroke="RGB(159,127,255)" stroke-width="0.5"/>
<path d="M588.35 121.72L587.15 121.03"
fill="none" stroke="RGB(159,127,255)" stroke-width="0.5"/>
<path d="M587.15 121.03L586.87 121.52"
fill="none" stroke="RGB(159,127,255)" stroke-width="0.5"/>
<path d="M441.42 118.62L441.42 119.61Z"
fill="none" stroke="RGB(159,127,255)" stroke-width="0.5"/>
<path d="M419.97 118.62L368.31 118.62"
fill="none" stroke="RGB(159,127,255)" stroke-width="0.5"/>
<path d="M419.97 119.11L419.97 118.62Z"
fill="none" stroke="RGB(159,127,255)" stroke-width="0.5"/>
<path d="M368.31 118.62L366.31 122.09"
fill="none" stroke="RGB(159,127,255)" stroke-width="0.5"/>
<path d="M608.22 202.65L651.87 159"
fill="none" stroke="RGB(159,127,255)" stroke-width="0.5"/>
<path d="M436.82 277.26L428.47 277.26"
fill="none" stroke="RGB(159,127,255)" stroke-width="0.5"/>
<path d="M428.47 284.71L436.82 284.71"
fill="none" stroke="RGB(159,127,255)" stroke-width="0.5"/>
<path d="M199.75 309.33L199.75 311.73Z"
fill="none" stroke="RGB(159,127,255)" stroke-width="0.5"/>
<path d="M185.97 309.33L187 309.33"
fill="none" stroke="RGB(159,127,255)" stroke-width="0.5"/>
<path d="M189.51 309.33L195.61 309.33"
fill="none" stroke="RGB(159,127,255)" stroke-width="0.5"/>
<path d="M193.84 309.33L195.61 309.33"
fill="none" stroke="RGB(159,127,255)" stroke-width="0.5"/>
<path d="M198.16 309.33L198.96 309.33"
fill="none" stroke="RGB(159,127,255)" stroke-width="0.5"/>
<path d="M451.05 248.02L451.05 239.53Z"
fill="none" stroke="RGB(159,127,255)" stroke-width="0.5"/>
<path d="M63.97 104.46L169.94 104.46"
fill="none" stroke="RGB(159,127,255)" stroke-width="0.5"/>
<path d="M277.97 311.66L277.97 313.9Z"
fill="none" stroke="RGB(159,127,255)" stroke-width="0.5"/>
<path d="M645.63 166.52L609.51 202.64"
fill="none" stroke="RGB(159,127,255)" stroke-width="0.5"/>
<path d="M609.51 202.64L615.75 206.65"
fill="none" stroke="RGB(159,127,255)" stroke-width="0.5"/>
<path d="M615.75 206.65L650.75 171.64"
fill="none" stroke="RGB(159,127,255)" stroke-width="0.5"/>
<path d="M371.98 304.44L372.54 304.44"
fill="none" stroke="RGB(159,127,255)" stroke-width="0.5"/>
<path d="M375.52 304.44L384.44 304.44"
fill="none" stroke="RGB(159,127,255)" stroke-width="0.5"/>
<path d="M384.44 304.44L384.44 310.25Z"
fill="none" stroke="RGB(159,127,255)" stroke-width="0.5"/>
<path d="M384.44 310.25L371.98 310.25"
fill="none" stroke="RGB(159,127,255)" stroke-width="0.5"/>
<path d="M371.98 310.25L371.98 304.44Z"
fill="none" stroke="RGB(159,127,255)" stroke-width="0.5"/>
<path d="M459.26 297.65L550.14 297.65"
fill="none" stroke="RGB(159,127,255)" stroke-width="0.5"/>
<path d="M459.26 297.65L459.26 310.95Z"
fill="none" stroke="RGB(159,127,255)" stroke-width="0.5"/>
<path d="M459.26 310.95L528.97 310.95"
fill="none" stroke="RGB(159,127,255)" stroke-width="0.5"/>
<path d="M306.52 298.33L322.1 289.44"
fill="none" stroke="RGB(159,127,255)" stroke-width="0.5"/>
<path d="M539.96 278.55L540.17 278.55"
fill="none" stroke="RGB(159,127,255)" stroke-width="0.5"/>
<path d="M540.17 278.55L540.17 277.26Z"
fill="none" stroke="RGB(159,127,255)" stroke-width="0.5"/>
<path d="M540.17 284.71L540.17 280.81Z"
fill="none" stroke="RGB(159,127,255)" stroke-width="0.5"/>
<path d="M434.18 250.49L427.65 250.49"
fill="none" stroke="RGB(159,127,255)" stroke-width="0.5"/>
<path d="M536.77 277.26L540.17 277.26"
fill="none" stroke="RGB(159,127,255)" stroke-width="0.5"/>
<path d="M540.17 284.71L536.77 284.71"
fill="none" stroke="RGB(159,127,255)" stroke-width="0.5"/>
<path d="M425.07 284.71L428.47 284.71"
fill="none" stroke="RGB(159,127,255)" stroke-width="0.5"/>
<path d="M425.07 284.71L425.07 277.26Z"
fill="none" stroke="RGB(159,127,255)" stroke-width="0.5"/>
<path d="M428.47 277.26L428.25 277.26"
fill="none" stroke="RGB(159,127,255)" stroke-width="0.5"/>
<path d="M425.99 277.26L425.07 277.26"
fill="none" stroke="RGB(159,127,255)" stroke-width="0.5"/>
<path d="M199.75 311.73L281.58 311.73"
fill="none" stroke="RGB(159,127,255)" stroke-width="0.5"/>
<path d="M449.63 247.46L443.52 247.47"
fill="none" stroke="RGB(159,127,255)" stroke-width="0.5"/>
<path d="M441.48 247.48L436.89 247.5"
fill="none" stroke="RGB(159,127,255)" stroke-width="0.5"/>
<path d="M436.89 247.5L434.17 247.5"
fill="none" stroke="RGB(159,127,255)" stroke-width="0.5"/>
<path d="M373.29 248.02L424.57 248.02"
fill="none" stroke="RGB(159,127,255)" stroke-width="0.5"/>
<path d="M450.06 247.03L449.63 247.03"
fill="none" stroke="RGB(159,127,255)" stroke-width="0.5"/>
<path d="M449.63 247.03L449.63 247.46Z"
fill="none" stroke="RGB(159,127,255)" stroke-width="0.5"/>
<path d="M 297.82 305.4 A 125.547 125.547 0 0 0 300.18 304.16"
fill="none" stroke="RGB(159,127,255)" stroke-width="0.5"/>
<path d="M 301.16 305.97 A 127.608 127.608 0 0 0 306.52 302.92"
fill="none" stroke="RGB(159,127,255)" stroke-width="0.5"/>
<path d="M 300.96 305.6 A 127.183 127.183 0 0 0 300.96 305.6"
fill="none" stroke="RGB(159,127,255)" stroke-width="0.5"/>
<path d="M 294.44 307.06 A 123.332 123.332 0 0 0 295.79 306.41"
fill="none" stroke="RGB(159,127,255)" stroke-width="0.5"/>
<path d="M 294.44 307.06 A 123.332 123.332 0 0 0 295.79 306.41"
fill="none" stroke="RGB(159,127,255)" stroke-width="0.5"/>
<path d="M 327.09 285.6 A 126.192 126.192 0 0 0 347.7 260.54"
fill="none" stroke="RGB(159,127,255)" stroke-width="0.5"/>
<path d="M 323.38 290.99 A 127.75 127.75 0 0 0 328.16 286.73"
fill="none" stroke="RGB(159,127,255)" stroke-width="0.5"/>
<path d="M527.22 249.72L528.68 250.95"
fill="none" stroke="RGB(159,127,255)" stroke-width="0.5"/>
<path d="M528.68 250.95L530.36 251.88"
fill="none" stroke="RGB(159,127,255)" stroke-width="0.5"/>
<path d="M530.36 251.88L532.18 252.46"
fill="none" stroke="RGB(159,127,255)" stroke-width="0.5"/>
<path d="M532.18 252.46L534.08 252.69"
fill="none" stroke="RGB(159,127,255)" stroke-width="0.5"/>
<path d="M534.08 252.69L535.98 252.55"
fill="none" stroke="RGB(159,127,255)" stroke-width="0.5"/>
<path d="M535.98 252.55L537.83 252.04"
fill="none" stroke="RGB(159,127,255)" stroke-width="0.5"/>
<path d="M537.83 252.04L539.54 251.19"
fill="none" stroke="RGB(159,127,255)" stroke-width="0.5"/>
<path d="M539.54 251.19L541.06 250.03"
fill="none" stroke="RGB(159,127,255)" stroke-width="0.5"/>
<path d="M541.06 250.03L542.32 248.6"
fill="none" stroke="RGB(159,127,255)" stroke-width="0.5"/>
<path d="M373.18 239.53L425 239.53"
fill="none" stroke="RGB(159,127,255)" stroke-width="0.5"/>
<path d="M427.65 247.46L427.65 250.5Z"
fill="none" stroke="RGB(159,127,255)" stroke-width="0.5"/>
<path d="M420.64 249.86L422.68 251.34"
fill="none" stroke="RGB(159,127,255)" stroke-width="0.5"/>
<path d="M422.68 251.34L424.92 252.48"
fill="none" stroke="RGB(159,127,255)" stroke-width="0.5"/>
<path d="M424.92 252.48L427.32 253.26"
fill="none" stroke="RGB(159,127,255)" stroke-width="0.5"/>
<path d="M427.32 253.26L429.81 253.65"
fill="none" stroke="RGB(159,127,255)" stroke-width="0.5"/>
<path d="M429.81 253.65L432.33 253.65"
fill="none" stroke="RGB(159,127,255)" stroke-width="0.5"/>
<path d="M432.33 253.65L434.82 253.26"
fill="none" stroke="RGB(159,127,255)" stroke-width="0.5"/>
<path d="M434.82 253.26L437.22 252.48"
fill="none" stroke="RGB(159,127,255)" stroke-width="0.5"/>
<path d="M437.22 252.48L439.47 251.34"
fill="none" stroke="RGB(159,127,255)" stroke-width="0.5"/>
<path d="M439.47 251.34L441.51 249.86"
fill="none" stroke="RGB(159,127,255)" stroke-width="0.5"/>
<path d="M212.98 348.84L220.2 348.84"
fill="none" stroke="RGB(159,127,255)" stroke-width="0.5"/>
<path d="M220.2 349.65L220.2 348.84Z"
fill="none" stroke="RGB(159,127,255)" stroke-width="0.5"/>
<path d="M223.99 356.13L223.99 348.91Z"
fill="none" stroke="RGB(159,127,255)" stroke-width="0.5"/>
<path d="M223.18 349.62L223.18 348.91Z"
fill="none" stroke="RGB(159,127,255)" stroke-width="0.5"/>
<path d="M223.18 348.91L223.99 348.91"
fill="none" stroke="RGB(159,127,255)" stroke-width="0.5"/>
<path d="M284.13 313.9L277.97 313.9"
fill="none" stroke="RGB(159,127,255)" stroke-width="0.5"/>
<path d="M284.13 313.9L289.28 313.23"
fill="none" stroke="RGB(159,127,255)" stroke-width="0.5"/>
<path d="M289.28 313.23L294.36 312.2"
fill="none" stroke="RGB(159,127,255)" stroke-width="0.5"/>
<path d="M294.36 312.2L299.36 310.81"
fill="none" stroke="RGB(159,127,255)" stroke-width="0.5"/>
<path d="M299.36 310.81L304.25 309.06"
fill="none" stroke="RGB(159,127,255)" stroke-width="0.5"/>
<path d="M304.25 309.06L309.01 306.97"
fill="none" stroke="RGB(159,127,255)" stroke-width="0.5"/>
<path d="M309.01 306.97L313.6 304.56"
fill="none" stroke="RGB(159,127,255)" stroke-width="0.5"/>
<path d="M313.6 304.56L318.01 301.81"
fill="none" stroke="RGB(159,127,255)" stroke-width="0.5"/>
<path d="M318.01 301.81L322.21 298.77"
fill="none" stroke="RGB(159,127,255)" stroke-width="0.5"/>
<path d="M322.21 298.77L326.19 295.43"
fill="none" stroke="RGB(159,127,255)" stroke-width="0.5"/>
<path d="M326.19 295.43L329.92 291.82"
fill="none" stroke="RGB(159,127,255)" stroke-width="0.5"/>
<path d="M329.92 291.82L333.38 287.95"
fill="none" stroke="RGB(159,127,255)" stroke-width="0.5"/>
<path d="M333.38 287.95L336.56 283.85"
fill="none" stroke="RGB(159,127,255)" stroke-width="0.5"/>
<path d="M336.56 283.85L339.44 279.53"
fill="none" stroke="RGB(159,127,255)" stroke-width="0.5"/>
<path d="M339.44 279.53L342.01 275.01"
fill="none" stroke="RGB(159,127,255)" stroke-width="0.5"/>
<path d="M342.01 275.01L344.24 270.33"
fill="none" stroke="RGB(159,127,255)" stroke-width="0.5"/>
<path d="M344.24 270.33L346.14 265.5"
fill="none" stroke="RGB(159,127,255)" stroke-width="0.5"/>
<path d="M346.14 265.5L347.7 260.54"
fill="none" stroke="RGB(159,127,255)" stroke-width="0.5"/>
<path d="M434.17 247.5L434.18 250.49Z"
fill="none" stroke="RGB(159,127,255)" stroke-width="0.5"/>
<path d="M427.65 247.45L425 247.46"
fill="none" stroke="RGB(159,127,255)" stroke-width="0.5"/>
<path d="M451.05 248.02L528.35 248.02"
fill="none" stroke="RGB(159,127,255)" stroke-width="0.5"/>
<path d="M564.74 248.02L567.14 248.02"
fill="none" stroke="RGB(159,127,255)" stroke-width="0.5"/>
<path d="M607.75 202.26L608.22 202.65"
fill="none" stroke="RGB(159,127,255)" stroke-width="0.5"/>
<path d="M63.97 104.46L63.97 144.1Z"
fill="none" stroke="RGB(159,127,255)" stroke-width="0.5"/>
<path d="M567.14 235.21L567.14 235.53Z"
fill="none" stroke="RGB(159,127,255)" stroke-width="0.5"/>
<path d="M185.04 305.76L186.96 305.76"
fill="none" stroke="RGB(159,127,255)" stroke-width="0.5"/>
<path d="M189.5 305.76L195.61 305.76"
fill="none" stroke="RGB(159,127,255)" stroke-width="0.5"/>
<path d="M198.16 305.76L199.75 305.76"
fill="none" stroke="RGB(159,127,255)" stroke-width="0.5"/>
<path d="M199.75 305.76L199.75 309.33Z"
fill="none" stroke="RGB(159,127,255)" stroke-width="0.5"/>
<path d="M199.75 309.33L198.16 309.33"
fill="none" stroke="RGB(159,127,255)" stroke-width="0.5"/>
<path d="M195.61 309.33L189.51 309.33"
fill="none" stroke="RGB(159,127,255)" stroke-width="0.5"/>
<path d="M187 309.33L185.03 309.33"
fill="none" stroke="RGB(159,127,255)" stroke-width="0.5"/>
<path d="M185.02 311.8L185.04 305.76"
fill="none" stroke="RGB(159,127,255)" stroke-width="0.5"/>
<path d="M305.31 341.47L312.53 341.47"
fill="none" stroke="RGB(159,127,255)" stroke-width="0.5"/>
<path d="M312.53 342.27L312.53 341.47Z"
fill="none" stroke="RGB(159,127,255)" stroke-width="0.5"/>
<path d="M316.31 348.76L316.31 341.54Z"
fill="none" stroke="RGB(159,127,255)" stroke-width="0.5"/>
<path d="M315.51 342.25L315.51 341.54Z"
fill="none" stroke="RGB(159,127,255)" stroke-width="0.5"/>
<path d="M315.51 341.54L316.31 341.54"
fill="none" stroke="RGB(159,127,255)" stroke-width="0.5"/>
<path d="M436.82 277.26L436.82 284.71Z"
fill="none" stroke="RGB(159,127,255)" stroke-width="0.5"/>
</svg>
